<svg version="1.1" id="Layer_1" xmlns:x="ns_extend;" xmlns:i="ns_ai;" xmlns:graph="ns_graphs;" xmlns="http://www.w3.org/2000/svg" xmlns:xlink="http://www.w3.org/1999/xlink" x="0px" y="0px" viewBox="0 0 295.5 65" style="enable-background:new 0 0 295.5 65;" xml:space="preserve">
 <style type="text/css">
  .st0{fill:#E00069;}
	.st1{fill:#A40F2B;}
	.st2{fill:#F4A6BA;}
	.st3{fill:#484D52;}
 </style>
 <metadata>
  <sfw xmlns="ns_sfw;">
   <slices>
   </slices>
   <sliceSourceBounds bottomLeftOrigin="true" height="65" width="295.5" x="-9.9" y="-218.9">
   </sliceSourceBounds>
  </sfw>
 </metadata>
 <g>
  <g>
   <path class="st0" d="M67.2,17.5C61.3,7.1,49.4,0,35.6,0C32,0,28.5,0.5,25.3,1.4c10.5,1,19.6,7.3,24.4,16.1H67.2z">
   </path>
   <path class="st1" d="M32.1,13.7c-3.1-1.8-6.7-2.8-10.6-2.8C9.6,10.9,0,20.5,0,32.4c0,11.9,9.6,21.5,21.6,21.5
			c3.8,0,7.4-1,10.6-2.8c-8.4-2.1-14.6-9.7-14.6-18.7C17.6,23.4,23.8,15.8,32.1,13.7">
   </path>
   <path class="st2" d="M25.3,63.6C28.5,64.5,32,65,35.6,65c13.8,0,25.7-7.1,31.6-17.5H49.7C44.8,56.3,35.8,62.6,25.3,63.6">
   </path>
   <path class="st3" d="M273.4,45.5h2.9V24.1l16.8,21.4h2.3V19.4h-2.9v20.9l-16.4-20.9h-2.8V45.5z M255.4,43.3
			c-6,0-10.3-4.8-10.3-10.8v-0.1c0-5.9,4.2-10.7,10.2-10.7c6,0,10.3,4.8,10.3,10.8v0.1C265.6,38.5,261.4,43.3,255.4,43.3 M255.3,46
			c7.9,0,13.3-6.3,13.3-13.5v-0.1c0-7.2-5.3-13.4-13.3-13.4c-7.9,0-13.3,6.3-13.3,13.5v0.1C242.1,39.8,247.4,46,255.3,46
			 M229.8,45.9c5.2,0,8.9-2.9,8.9-7.4v-0.1c0-4-2.7-6.1-8.5-7.4c-5.7-1.2-7.1-2.6-7.1-5.1v-0.1c0-2.3,2.2-4.2,5.6-4.2
			c2.7,0,5.1,0.9,7.5,2.8l1.7-2.3c-2.6-2.1-5.4-3.2-9.2-3.2c-5,0-8.6,3-8.6,7.1v0.1c0,4.3,2.8,6.2,8.8,7.5c5.5,1.2,6.8,2.5,6.8,5
			v0.1c0,2.6-2.3,4.4-5.8,4.4c-3.6,0-6.2-1.2-8.9-3.7l-1.8,2.2C222.3,44.5,225.7,45.9,229.8,45.9 M193,45.5h2.9V24.1l16.8,21.4h2.3
			V19.4h-2.9v20.9l-16.4-20.9H193V45.5z M183.9,45.5h2.9V19.4h-2.9V45.5z M162.1,45.5h17.6v-2.7H165V19.4h-2.9V45.5z M140.5,45.5
			h17.6v-2.7h-14.7V19.4h-2.9V45.5z M122.6,43.3c-6,0-10.3-4.8-10.3-10.8v-0.1c0-5.9,4.2-10.7,10.2-10.7c6,0,10.3,4.8,10.3,10.8v0.1
			C132.8,38.5,128.5,43.3,122.6,43.3 M122.5,46c7.9,0,13.3-6.3,13.3-13.5v-0.1c0-7.2-5.3-13.4-13.3-13.4c-7.9,0-13.3,6.3-13.3,13.5
			v0.1C109.2,39.8,114.5,46,122.5,46 M97.1,46c4.7,0,7.7-1.8,10.4-4.6l-1.9-1.9c-2.5,2.4-4.8,3.8-8.4,3.8c-5.7,0-10.1-4.7-10.1-10.8
			v-0.1c0-6,4.3-10.7,10.1-10.7c3.5,0,6,1.5,8.2,3.6l2-2.2c-2.6-2.5-5.4-4.1-10.2-4.1C89.5,19,84,25.1,84,32.5v0.1
			C84,40,89.5,46,97.1,46">
   </path>
  </g>
 </g>
</svg>