<svg width="134" height="48" viewBox="0 0 134 48" fill="none" xmlns="http://www.w3.org/2000/svg">
<path d="M0 41.0237C0 44.8771 3.12899 48 6.98779 48C7.00792 48 7.1824 47.9983 7.23945 47.9983C10.9724 47.9983 30.5063 46.152 31.0315 24.3853C31.0382 24.258 31.0432 24.129 31.0432 24C31.0432 20.1466 27.9142 17.022 24.0554 17.022C20.1966 17.022 17.0693 20.1466 17.0693 24C17.0693 34.2333 6.98946 34.0457 6.98946 34.0457C3.12898 34.0457 0 37.1703 0 41.0237ZM31.0415 6.97801C31.0415 3.12461 27.9142 0 24.0554 0H6.98779C3.12899 0 0.00167938 3.12293 0.00167938 6.97801C0.00167938 10.8314 3.12899 13.9543 6.98779 13.9543H14.546C11.5596 17.022 6.98946 17.022 6.98946 17.022C3.13066 17.022 0.00167938 20.1466 0.00167938 24C0.00167938 27.8534 3.13066 30.9763 6.98946 30.9763C10.8483 30.9763 13.9756 27.8534 13.9756 24C13.9756 24 13.9756 13.9543 24.0571 13.9543C27.9142 13.956 31.0415 10.8314 31.0415 6.97801Z" fill="#00FFC8"/>
<path d="M42.1719 19.6333H45.3646V14.3055C45.3646 9.19727 48.6882 5.92188 53.8473 5.92188C55.2029 5.92188 56.2968 6.09612 57.1272 6.44627V12.1225C56.4712 11.8176 55.8589 11.6852 55.072 11.6852C53.2349 11.6852 52.0118 12.6888 52.0118 14.6976V19.6316H56.9091V25.3514H52.0118V41.5508H45.3646V25.3514H42.1719V19.6333Z" fill="white"/>
<path d="M70.7871 36.3559C73.9798 36.3559 76.384 33.8662 76.384 30.5925C76.384 27.3171 73.9798 24.8292 70.7871 24.8292C67.5507 24.8292 65.1465 27.3188 65.1465 30.5925C65.1465 33.8679 67.5524 36.3559 70.7871 36.3559ZM82.8551 19.6338V41.5529H76.2079V38.9326C74.8959 40.6348 72.4045 42.0757 69.3862 42.0757C63.395 42.0757 58.543 37.1416 58.543 30.5925C58.543 24.0434 63.3967 19.1094 69.3862 19.1094C72.4028 19.1094 74.8959 20.5502 76.2079 22.2524V19.6321H82.8551V19.6338Z" fill="white"/>
<path d="M96.8706 25.047C94.4227 25.047 92.9346 26.9251 92.9346 29.5002V41.5513H86.2891V19.6321H92.9346V22.1653C94.2466 20.4614 96.4327 19.1094 99.3184 19.1094C104.172 19.1094 107.189 22.3848 107.189 27.1446V41.5546H100.543V28.9791C100.543 26.7073 99.2311 25.047 96.8706 25.047Z" fill="white"/>
<path d="M120.526 26.9726V21.6884H122.099C124.198 21.6884 126.123 20.2476 126.123 17.8468C126.123 15.7073 124.593 14.0922 122.319 14.0922C119.783 14.0922 118.209 15.9251 118.165 18.5454H111.607C111.825 12.9127 115.892 8.10938 122.494 8.10938C128.659 8.10938 132.639 11.9511 132.639 17.4966C132.639 20.509 130.891 22.8679 129.054 24.091C131.896 25.5753 133.864 28.1521 133.864 31.8195C133.864 37.5829 129.097 42.0813 122.232 42.0813C114.974 42.0813 110.208 37.3651 110.164 30.7724H117.029C117.029 33.8736 118.997 36.318 122.232 36.318C125.074 36.318 127.217 34.3527 127.217 31.5146C127.217 28.5894 124.987 26.9726 122.101 26.9726H120.526Z" fill="white"/>
</svg>
