<?xml version="1.0"?>
<svg xmlns="http://www.w3.org/2000/svg" width="935" height="166" viewBox="0 0 935 166" fill="none">
<g clip-path="url(#clip0_1427_15739)">
<path d="M139.18 140.84C139.09 140.45 139.01 140.07 138.92 139.68C138.8 139.15 138.68 138.62 138.55 138.1C138.46 137.71 138.36 137.33 138.27 136.94C138.14 136.41 138.01 135.88 137.87 135.36C137.77 134.98 137.67 134.59 137.57 134.21C137.43 133.68 137.28 133.15 137.14 132.62L137.1 132.49C137.01 132.15 136.91 131.82 136.82 131.48C136.67 130.95 136.51 130.42 136.36 129.89L136.3 129.68C136.21 129.38 136.12 129.07 136.03 128.77C135.87 128.23 135.7 127.69 135.53 127.15L135.43 126.84C135.35 126.58 135.27 126.32 135.18 126.06C135.01 125.54 134.84 125.02 134.67 124.51L134.51 124.03C134.44 123.81 134.36 123.58 134.29 123.36C134.09 122.78 133.89 122.2 133.69 121.62L133.57 121.29C133.5 121.08 133.43 120.88 133.35 120.67C133.11 120 132.87 119.34 132.62 118.68L132.37 117.99C132.03 117.1 131.69 116.21 131.34 115.32L131.15 114.85C130.86 114.12 130.57 113.4 130.27 112.67C130.18 112.46 130.09 112.24 130 112.03L129.78 111.51C129.57 111.02 129.36 110.53 129.15 110.04C129.04 109.79 128.93 109.53 128.81 109.28L128.46 108.5C128.43 108.43 128.4 108.37 128.37 108.3L128.53 108.09C128.74 107.82 128.94 107.54 129.14 107.27L129.31 107.04C129.53 106.73 129.74 106.42 129.95 106.11C130.01 106.02 130.07 105.93 130.13 105.83L130.19 105.73C130.33 105.51 130.47 105.3 130.61 105.08C130.7 104.94 130.78 104.81 130.86 104.67C130.99 104.45 131.12 104.23 131.25 104.01L131.3 103.92C131.35 103.83 131.41 103.73 131.46 103.64C131.65 103.31 131.83 102.97 132 102.64L132.1 102.44C132.24 102.16 132.38 101.88 132.51 101.6C132.56 101.49 132.61 101.39 132.66 101.28L132.68 101.23C132.79 101 132.89 100.77 132.99 100.54C133.05 100.41 133.1 100.29 133.15 100.16C133.25 99.91 133.35 99.65 133.45 99.4L133.56 99.1C133.69 98.75 133.81 98.4 133.93 98.05L134 97.84C134.03 97.73 134.07 97.63 134.1 97.52C134.75 98.95 135.38 100.4 135.98 101.85L136.11 102.18C136.4 102.9 136.69 103.61 136.98 104.33C137.04 104.47 137.09 104.61 137.14 104.75L137.24 105.01C137.47 105.61 137.7 106.22 137.93 106.82C137.99 106.99 138.06 107.17 138.12 107.34L138.23 107.64C138.43 108.2 138.64 108.76 138.83 109.32C138.91 109.56 139 109.8 139.08 110.05L139.14 110.23C139.33 110.77 139.51 111.31 139.69 111.85C139.79 112.17 139.9 112.48 140 112.8C140.17 113.33 140.34 113.86 140.5 114.38C140.6 114.71 140.7 115.04 140.8 115.37C140.96 115.89 141.11 116.41 141.26 116.94C141.36 117.28 141.45 117.61 141.55 117.95C141.69 118.47 141.84 118.99 141.97 119.5L142.03 119.72C142.1 119.99 142.18 120.26 142.25 120.53C142.38 121.04 142.51 121.56 142.64 122.07L142.7 122.29C142.77 122.56 142.84 122.84 142.9 123.11C143.02 123.59 143.13 124.07 143.24 124.55L143.34 125.01C143.39 125.24 143.45 125.47 143.5 125.71C143.6 126.14 143.69 126.57 143.78 127.01L143.91 127.65C143.96 127.87 144 128.1 144.05 128.32C144.14 128.76 144.22 129.19 144.3 129.63L144.42 130.27C144.46 130.49 144.51 130.72 144.55 130.94C144.6 131.21 144.65 131.49 144.69 131.76L144.84 132.64C144.88 132.87 144.92 133.1 144.96 133.34C144.95 133.63 144.93 133.91 144.9 134.19L144.86 134.53C144.85 134.66 144.83 134.79 144.81 134.92C156.44 120.68 163.42 102.49 163.42 82.67C163.46 37.02 126.44 0 80.77 0C64.97 0 50.21 4.44 37.65 12.13C37.93 12.23 38.21 12.32 38.49 12.42L39.02 12.61C39.35 12.73 39.68 12.84 40.01 12.96C40.44 13.11 40.86 13.27 41.28 13.42L41.75 13.59C42.06 13.71 42.38 13.82 42.69 13.94C43.09 14.09 43.49 14.25 43.89 14.4L44.49 14.63C44.78 14.74 45.06 14.85 45.35 14.96C45.73 15.11 46.11 15.26 46.49 15.42L47.15 15.69C47.43 15.8 47.71 15.92 47.99 16.03C48.4 16.2 48.8 16.37 49.21 16.54L49.85 16.81C50.11 16.92 50.36 17.03 50.62 17.14C51.02 17.31 51.42 17.49 51.81 17.67L52.54 17.99C52.77 18.09 53 18.19 53.22 18.29C53.78 18.55 54.34 18.81 54.91 19.07L55.33 19.27C55.49 19.34 55.65 19.42 55.81 19.49C56.66 19.89 57.51 20.3 58.36 20.72C58.51 20.8 58.66 20.87 58.81 20.95L59.29 21.19C59.83 21.46 60.37 21.73 60.9 22C61.11 22.11 61.33 22.22 61.54 22.34L62.3 22.74C62.67 22.93 63.04 23.13 63.41 23.33C63.65 23.46 63.89 23.59 64.14 23.72L64.84 24.1C65.2 24.29 65.55 24.49 65.91 24.69C66.18 24.84 66.44 24.99 66.7 25.14L67.3 25.48C67.66 25.68 68.02 25.89 68.38 26.1C68.65 26.26 68.93 26.42 69.2 26.58L69.52 26.77C69.67 26.86 69.82 26.95 69.97 27.04C69.96 27.11 69.95 27.19 69.94 27.27L69.92 27.39C69.87 27.67 69.81 27.97 69.74 28.26L69.71 28.39C69.63 28.72 69.54 29.01 69.45 29.28L69.43 29.33C69.33 29.62 69.22 29.92 69.1 30.21L69.07 30.3C68.95 30.58 68.82 30.87 68.67 31.18L68.6 31.33C68.45 31.62 68.3 31.9 68.13 32.19L68.04 32.33C67.85 32.66 67.67 32.94 67.48 33.22L67.45 33.26C67.45 33.26 67.42 33.3 67.41 33.32L67.33 33.26C66.99 33.01 66.64 32.75 66.29 32.5C65.93 32.24 65.56 31.98 65.2 31.72L64.86 31.47C64.54 31.24 64.22 31.02 63.9 30.79C63.57 30.56 63.23 30.33 62.9 30.1L62.37 29.74C62.07 29.54 61.78 29.33 61.48 29.13C61.18 28.92 60.88 28.72 60.57 28.52L59.9 28.07C59.61 27.88 59.33 27.69 59.04 27.5C58.73 27.3 58.42 27.1 58.12 26.9L57.38 26.42C57.11 26.25 56.84 26.07 56.58 25.9C56.24 25.69 55.9 25.47 55.56 25.26L54.87 24.83C54.61 24.67 54.36 24.51 54.1 24.35C53.51 23.99 52.92 23.63 52.33 23.28C51.78 22.95 51.22 22.62 50.66 22.29L50.37 22.12C49.95 21.87 49.53 21.62 49.1 21.38C48.85 21.24 48.6 21.1 48.36 20.96L47.58 20.52C47.24 20.33 46.9 20.13 46.55 19.94C46.26 19.78 45.97 19.62 45.68 19.47L45.05 19.13C44.7 18.94 44.34 18.75 43.99 18.56C43.69 18.4 43.39 18.24 43.09 18.09L42.5 17.78C42.14 17.59 41.77 17.4 41.41 17.21C41.1 17.05 40.79 16.89 40.47 16.74L39.93 16.47C39.56 16.28 39.18 16.09 38.81 15.91C38.46 15.74 38.11 15.57 37.76 15.4L37.4 15.22C37 15.03 36.6 14.83 36.19 14.64C35.83 14.47 35.47 14.3 35.11 14.14L34.84 14.01C34.84 14.01 34.81 13.99 34.79 13.99C33.47 14.87 32.19 15.79 30.93 16.75C31.16 16.85 31.39 16.96 31.62 17.06C32.03 17.25 32.44 17.44 32.85 17.63L33.42 17.9C33.68 18.02 33.95 18.14 34.21 18.27C34.6 18.45 34.98 18.64 35.36 18.82L36.07 19.16C36.31 19.27 36.55 19.39 36.78 19.51C37.19 19.71 37.6 19.92 38 20.12L38.69 20.46C38.91 20.57 39.12 20.68 39.34 20.79C39.84 21.05 40.34 21.31 40.83 21.57L41.36 21.85C41.53 21.94 41.71 22.03 41.88 22.12C42.72 22.56 43.55 23.02 44.38 23.47C44.58 23.58 44.79 23.7 44.99 23.81L45.71 24.21C46.1 24.43 46.49 24.65 46.88 24.87C47.15 25.02 47.41 25.18 47.68 25.33L48.45 25.78C48.75 25.96 49.06 26.13 49.36 26.31C49.66 26.49 49.95 26.66 50.25 26.84L50.88 27.22C51.2 27.41 51.51 27.6 51.83 27.79C52.12 27.97 52.41 28.15 52.7 28.33L53.41 28.78C53.7 28.96 53.98 29.14 54.26 29.32C54.59 29.53 54.93 29.75 55.26 29.96L55.69 30.24C56.02 30.45 56.35 30.66 56.68 30.88C57.01 31.1 57.34 31.32 57.67 31.54L58.17 31.87C58.48 32.07 58.78 32.28 59.09 32.49C59.43 32.72 59.77 32.95 60.11 33.19L60.5 33.46C60.83 33.68 61.15 33.91 61.48 34.14C61.86 34.4 62.23 34.67 62.6 34.94L62.75 35.05C63.11 35.31 63.47 35.57 63.83 35.83C64.15 36.06 64.46 36.29 64.78 36.53C64.75 36.56 64.72 36.59 64.69 36.63C64.4 36.92 64.1 37.21 63.79 37.5L63.68 37.6C63.38 37.88 63.06 38.16 62.74 38.44L62.57 38.59C62.25 38.87 61.91 39.14 61.57 39.41L61.4 39.54C61.04 39.82 60.67 40.1 60.29 40.38L60.94 41.27L60.25 40.41C59.87 40.69 59.48 40.96 59.08 41.24L58.93 41.34C58.54 41.61 58.13 41.87 57.72 42.13L57.49 42.28C57.28 42.41 57.08 42.54 56.86 42.67C56.83 42.64 56.8 42.61 56.76 42.58L56.22 42.06C56.05 41.9 55.89 41.74 55.72 41.58C55.26 41.14 54.79 40.7 54.33 40.27L54.08 40.03C53.93 39.89 53.79 39.75 53.64 39.62C53.15 39.16 52.66 38.72 52.16 38.27L51.53 37.7C50.97 37.19 50.4 36.69 49.83 36.19L49.41 35.81C47.99 34.57 46.54 33.33 45.09 32.13L44.47 31.62C43.95 31.2 43.44 30.77 42.92 30.36C42.74 30.22 42.56 30.07 42.38 29.93L42.08 29.69C41.63 29.33 41.18 28.98 40.73 28.62C40.52 28.46 40.31 28.3 40.1 28.13L39.74 27.85C39.34 27.54 38.93 27.23 38.53 26.92C38.29 26.74 38.05 26.56 37.81 26.38L37.48 26.14C37.09 25.85 36.69 25.55 36.3 25.26C36.01 25.05 35.73 24.84 35.44 24.63L35.29 24.52C34.88 24.22 34.47 23.93 34.06 23.64C33.72 23.4 33.39 23.17 33.02 22.91C32.62 22.63 32.21 22.34 31.8 22.06C31.45 21.82 31.09 21.57 30.73 21.33C30.33 21.06 29.93 20.79 29.53 20.52C29.16 20.28 28.8 20.04 28.43 19.79C28.18 19.63 27.93 19.46 27.68 19.3C26.59 20.21 25.52 21.16 24.48 22.13C24.52 22.16 24.57 22.19 24.61 22.21C25.02 22.48 25.44 22.75 25.85 23.02L26.36 23.35C26.53 23.46 26.69 23.57 26.86 23.68C27.42 24.05 27.97 24.43 28.53 24.8L29.09 25.18C30.57 26.2 32.07 27.26 33.55 28.33L34 28.66C34.58 29.09 35.16 29.52 35.74 29.95C35.87 30.05 36.01 30.15 36.14 30.26L36.51 30.54C36.98 30.9 37.45 31.25 37.91 31.61C38.09 31.75 38.26 31.88 38.44 32.02L38.82 32.32C39.24 32.65 39.65 32.98 40.07 33.31C40.26 33.46 40.45 33.62 40.64 33.77L41.03 34.08C41.42 34.4 41.82 34.72 42.21 35.04C42.45 35.24 42.68 35.43 42.92 35.63L43.22 35.88C43.59 36.19 43.96 36.5 44.33 36.81C44.6 37.04 44.87 37.27 45.14 37.5L45.43 37.75C45.76 38.04 46.1 38.32 46.43 38.61C46.73 38.87 47.02 39.13 47.32 39.4L47.41 39.48C47.78 39.8 48.14 40.13 48.51 40.46C48.85 40.76 49.18 41.07 49.51 41.37C49.86 41.69 50.21 42.01 50.56 42.34C50.9 42.66 51.24 42.98 51.58 43.3C51.92 43.62 52.26 43.94 52.59 44.26C52.76 44.42 52.93 44.58 53.09 44.74C52.82 44.88 52.55 45.02 52.27 45.16C52.01 45.29 51.75 45.42 51.49 45.55C51.13 45.72 50.77 45.9 50.37 46.09C50.12 46.21 49.87 46.33 49.61 46.44C49.23 46.62 48.83 46.79 48.44 46.96L48.17 47.08C48 47.16 47.83 47.23 47.65 47.31C47.21 47.5 46.75 47.69 46.3 47.87L46.02 47.99C45.89 48.05 45.76 48.1 45.62 48.15C44.95 48.42 44.27 48.68 43.57 48.95C43.41 49.01 43.24 49.07 43.08 49.13L42.63 49.29C42.23 49.44 41.83 49.59 41.42 49.73C41.16 49.82 40.9 49.91 40.63 50L40.38 50.08C40.38 50.08 40.29 50.11 40.25 50.12L39.82 49.52C39.67 49.31 39.52 49.11 39.37 48.9C39.05 48.47 38.74 48.05 38.42 47.62L37.77 46.75C37.39 46.25 37.01 45.76 36.63 45.26L36.15 44.64C35.65 44 35.15 43.36 34.65 42.73L34.52 42.56C33.96 41.86 33.4 41.17 32.84 40.48L32.63 40.23C32.15 39.64 31.66 39.05 31.18 38.47L30.64 37.83C30.26 37.38 29.89 36.94 29.51 36.5C29.36 36.32 29.2 36.15 29.05 35.97L28.84 35.73C28.5 35.34 28.16 34.95 27.82 34.56C27.64 34.36 27.47 34.16 27.29 33.97L26.97 33.61C26.69 33.29 26.4 32.97 26.12 32.66C25.92 32.44 25.73 32.23 25.53 32.02L25.34 31.81C25.03 31.47 24.72 31.14 24.41 30.8C24.14 30.51 23.86 30.22 23.59 29.93C23.29 29.61 22.99 29.29 22.68 28.97C22.43 28.71 22.17 28.44 21.92 28.18L21.83 28.09C21.54 27.79 21.24 27.48 20.94 27.18C20.68 26.91 20.41 26.65 20.15 26.38C19.21 27.39 18.3 28.41 17.42 29.46C17.5 29.54 17.59 29.63 17.67 29.71C18.19 30.23 18.7 30.76 19.22 31.3L19.39 31.47C19.96 32.06 20.53 32.66 21.1 33.27L21.61 33.82C22.01 34.25 22.4 34.67 22.8 35.11C22.93 35.25 23.06 35.39 23.18 35.54L23.52 35.92C23.84 36.27 24.16 36.63 24.47 36.99C24.61 37.15 24.75 37.31 24.89 37.47L25.18 37.81C25.5 38.17 25.82 38.54 26.14 38.91C26.31 39.1 26.47 39.3 26.64 39.5L26.86 39.76C27.17 40.13 27.49 40.49 27.8 40.87C27.96 41.06 28.12 41.25 28.27 41.44L28.59 41.83C28.87 42.17 29.16 42.51 29.44 42.86C29.63 43.09 29.82 43.33 30.01 43.56L30.12 43.69C30.44 44.09 30.76 44.48 31.08 44.88C31.26 45.11 31.44 45.34 31.62 45.57L31.75 45.73C32.07 46.13 32.38 46.53 32.7 46.94C32.92 47.23 33.15 47.52 33.37 47.81C33.68 48.21 33.99 48.62 34.3 49.03C34.52 49.33 34.75 49.63 34.97 49.92C35.27 50.33 35.58 50.73 35.88 51.15C35.96 51.26 36.04 51.36 36.11 51.47C36.03 51.49 35.95 51.52 35.87 51.54C35.42 51.68 34.96 51.81 34.5 51.94C34.15 52.04 33.8 52.14 33.45 52.24C32.97 52.37 32.48 52.51 32 52.64L31.76 52.71C31.5 52.78 31.24 52.85 30.98 52.92C30.45 53.06 29.92 53.19 29.38 53.32L29.04 53.41C28.84 53.46 28.65 53.51 28.45 53.56C27.76 53.73 27.06 53.89 26.36 54.05L25.88 54.16C25.01 54.36 24.12 54.54 23.23 54.73L22.55 54.87C21.88 55.01 21.2 55.14 20.52 55.27C20.34 55.3 20.15 55.34 19.97 55.37L19.62 55.43C19.43 55.46 19.25 55.5 19.06 55.53L18.57 54.4C18.4 54.01 18.23 53.62 18.06 53.24L17.55 52.09C17.41 51.77 17.26 51.44 17.12 51.12L16.53 49.81C16.41 49.54 16.28 49.27 16.16 49L15.85 48.32C15.74 48.07 15.62 47.82 15.51 47.58L15.05 46.61C14.63 45.72 14.21 44.84 13.79 43.97L13.48 43.32C13.32 42.98 13.15 42.65 12.99 42.32L12.44 41.2C12.25 40.82 12.06 40.45 11.87 40.08L11.38 39.12C11.24 38.85 11.1 38.57 10.96 38.3C10.09 39.66 9.26001 41.05 8.47001 42.46C8.51001 42.54 8.56001 42.63 8.60001 42.71C8.74001 42.98 8.87001 43.25 9.01001 43.53L9.19001 43.89C9.34001 44.19 9.49001 44.49 9.64001 44.8C9.82001 45.16 10 45.53 10.17 45.9L10.24 46.04C10.38 46.33 10.52 46.62 10.66 46.91C10.85 47.3 11.03 47.69 11.22 48.09L11.67 49.05C11.87 49.47 12.06 49.89 12.26 50.31L12.68 51.21C12.88 51.66 13.09 52.11 13.29 52.56L13.67 53.4C13.88 53.88 14.1 54.36 14.31 54.85L14.64 55.61C14.73 55.82 14.82 56.02 14.91 56.23C14.64 56.27 14.37 56.32 14.09 56.36C13.49 56.45 12.89 56.54 12.28 56.63L12.03 56.67C11.74 56.71 11.45 56.75 11.17 56.79C10.54 56.88 9.90001 56.96 9.26001 57.04L8.88001 57.09C8.66001 57.12 8.44001 57.15 8.22001 57.17C7.48001 57.26 6.73001 57.35 5.99001 57.43L5.25001 57.52C4.24001 57.63 3.23001 57.73 2.21001 57.83L1.99001 57.85C1.94001 57.85 1.89001 57.85 1.83001 57.86C1.39001 59.26 0.980013 60.67 0.620013 62.09C0.900013 62.07 1.19001 62.04 1.47001 62.02L2.04001 61.97C2.27001 61.95 2.51001 61.93 2.74001 61.91C3.53001 61.84 4.31001 61.75 5.09001 61.67L5.82001 61.59C6.84001 61.48 7.86001 61.36 8.87001 61.24C9.03001 61.22 9.20001 61.2 9.36001 61.18L9.69001 61.14C10.42 61.05 11.16 60.95 11.89 60.85C12.14 60.82 12.38 60.78 12.62 60.74L13.32 60.64C13.84 60.57 14.35 60.49 14.86 60.41C15.18 60.36 15.49 60.31 15.81 60.26L16.57 60.14L17.07 61.34C17.22 61.7 17.36 62.06 17.51 62.42L17.65 62.77C17.77 63.07 17.89 63.37 18.01 63.67L18.55 65.02C18.68 65.36 18.82 65.69 18.95 66.03C19.06 66.31 19.17 66.58 19.27 66.86L19.49 67.43C19.62 67.76 19.74 68.08 19.87 68.41L21.68 73.25C21.85 73.73 22.03 74.2 22.2 74.68L22.72 76.14C22.96 76.81 23.2 77.48 23.43 78.16L23.86 79.39C24.01 79.82 24.15 80.24 24.3 80.67L24.7 81.87C24.85 82.32 25 82.76 25.15 83.22L25.49 84.24C25.66 84.76 25.83 85.27 26 85.79L26.29 86.7C26.47 87.26 26.65 87.83 26.83 88.39L27.1 89.25C27.28 89.84 27.47 90.42 27.65 91.01L27.9 91.82C28.09 92.43 28.28 93.05 28.46 93.67L28.68 94.42C28.87 95.07 29.07 95.71 29.26 96.36L29.47 97.1C29.28 97.13 29.1 97.16 28.91 97.19L28.48 97.26C28.06 97.33 27.63 97.4 27.2 97.46C26.46 97.57 25.71 97.68 24.96 97.79L24.14 97.91C23.79 97.96 23.45 98.01 23.1 98.06C22.18 98.19 21.26 98.31 20.32 98.43L19.76 98.5C19.49 98.54 19.22 98.57 18.94 98.61C17.76 98.76 16.56 98.89 15.37 99.03L14.74 99.1C13.34 99.25 11.9 99.4 10.47 99.53C10.32 99.54 10.16 99.56 10.01 99.57L9.61001 99.6C8.48001 99.7 7.34001 99.8 6.20001 99.89C5.90001 99.91 5.61001 99.93 5.31001 99.96L4.58001 100.01C3.68001 100.08 2.79001 100.14 1.89001 100.2C1.51001 100.22 1.13001 100.25 0.760013 100.27L0.180013 100.3C0.0900134 100.3 1.34259e-05 100.31 -0.0799866 100.32C0.220013 101.69 0.550013 103.04 0.910013 104.38C1.35001 104.35 1.79001 104.33 2.23001 104.3C2.98001 104.25 3.72001 104.2 4.47001 104.14L5.43001 104.07C5.82001 104.04 6.21001 104.01 6.59001 103.98C7.52001 103.91 8.45001 103.82 9.38001 103.74L10.08 103.68C10.37 103.66 10.65 103.63 10.94 103.6C12.3 103.47 13.66 103.33 15 103.19L15.24 103.17C16.65 103.02 18.09 102.85 19.52 102.67C19.78 102.64 20.04 102.6 20.29 102.57L20.8 102.5C21.78 102.37 22.76 102.25 23.73 102.12C24.09 102.07 24.45 102.02 24.81 101.96L25.79 101.82C26.49 101.72 27.19 101.62 27.89 101.51C28.33 101.44 28.76 101.37 29.19 101.3L30.41 101.1C30.48 101.09 30.54 101.08 30.61 101.07C30.82 101.81 31.02 102.54 31.22 103.28L31.41 103.95C31.51 104.31 31.61 104.67 31.71 105.03C32.06 106.32 32.4 107.62 32.74 108.93L32.92 109.6C33 109.9 33.08 110.2 33.16 110.5C33.54 111.98 33.9 113.46 34.27 114.94L34.39 115.44C34.44 115.63 34.49 115.82 34.53 116.01C34.98 117.88 35.42 119.76 35.85 121.62C36.26 123.42 36.67 125.28 37.07 127.15C37.16 127.57 37.24 127.98 37.33 128.4L37.62 129.8C37.82 130.78 38.03 131.75 38.23 132.73C38.35 133.34 38.47 133.94 38.59 134.55L38.9 136.14C39.04 136.87 39.19 137.6 39.32 138.33C39.46 139.07 39.59 139.82 39.73 140.56L39.98 141.96C40.01 142.13 40.04 142.3 40.07 142.47C39.6 142.55 39.14 142.62 38.67 142.7L38.04 142.8C37.62 142.87 37.2 142.94 36.78 143C35.81 143.15 34.83 143.29 33.86 143.43L32.9 143.57C32.54 143.62 32.17 143.68 31.81 143.73C30.63 143.89 29.45 144.05 28.26 144.2L27.65 144.28C27.36 144.32 27.07 144.36 26.78 144.39C26.48 144.43 26.18 144.46 25.88 144.5C27.28 145.75 28.73 146.94 30.22 148.09C30.93 148 31.64 147.91 32.34 147.81C32.86 147.74 33.38 147.66 33.9 147.58L35.17 147.39C35.9 147.28 36.63 147.18 37.36 147.07C37.93 146.98 38.5 146.89 39.07 146.8L40.53 146.57C40.62 146.56 40.7 146.54 40.79 146.53C40.87 147.03 40.96 147.53 41.04 148.03L41.22 149.15C41.31 149.69 41.4 150.24 41.49 150.78C41.65 151.8 41.81 152.83 41.96 153.85L42.15 155.12C42.19 155.36 42.22 155.6 42.26 155.84C43.72 156.61 45.21 157.33 46.72 158.01C46.63 157.33 46.53 156.64 46.43 155.96C46.36 155.51 46.29 155.05 46.23 154.6L46.04 153.33C45.88 152.26 45.72 151.19 45.55 150.12C45.47 149.58 45.38 149.05 45.29 148.51L45 146.77C44.96 146.53 44.92 146.28 44.88 146.04H44.92L44.88 145.82C45.17 145.77 45.47 145.71 45.76 145.66L46.78 145.47C47.22 145.39 47.67 145.31 48.11 145.22L49.49 144.95C49.81 144.89 50.12 144.83 50.44 144.76L51.57 144.53C51.97 144.45 52.36 144.37 52.75 144.29C53.08 144.22 53.42 144.15 53.75 144.08L55.04 143.81C55.37 143.74 55.69 143.67 56.01 143.6L57.31 143.31C57.74 143.21 58.18 143.11 58.61 143.01L59.57 142.79C60.31 142.62 61.05 142.44 61.79 142.26L62.53 142.08C63.03 141.96 63.52 141.84 64.01 141.71L65.17 141.41C65.52 141.32 65.87 141.23 66.21 141.14L67.28 140.86C67.65 140.76 68.02 140.66 68.39 140.56L69.46 140.27C69.82 140.17 70.18 140.07 70.54 139.97L71.42 139.72C71.84 139.6 72.26 139.48 72.67 139.36C72.94 139.28 73.21 139.2 73.48 139.12L73.54 139.1C73.96 138.98 74.37 138.85 74.78 138.73L75.63 138.47C76.04 138.34 76.45 138.22 76.86 138.09L77.26 137.96C77.38 138.39 77.5 138.82 77.61 139.25C77.73 139.71 77.85 140.16 77.97 140.62L78.01 140.78C78.12 141.21 78.24 141.63 78.35 142.06C78.45 142.44 78.55 142.83 78.64 143.21L78.76 143.68C78.86 144.08 78.96 144.48 79.06 144.88C79.16 145.29 79.26 145.7 79.36 146.12L79.51 146.75C79.59 147.07 79.66 147.39 79.74 147.71C79.84 148.12 79.93 148.53 80.03 148.94L80.22 149.75C80.28 150.01 80.34 150.27 80.4 150.53C80.51 151.01 80.61 151.49 80.72 151.97L80.86 152.61C80.92 152.86 80.97 153.11 81.02 153.36C81.14 153.94 81.26 154.53 81.39 155.11L81.61 156.19C81.77 156.99 81.93 157.78 82.08 158.57L82.17 159.02C82.53 160.92 82.88 162.85 83.2 164.74L83.28 165.24C83.28 165.24 83.28 165.26 83.28 165.27C84.67 165.23 86.04 165.15 87.41 165.04L87.23 163.94C87.12 163.26 87 162.58 86.88 161.91L86.73 161.08C86.59 160.31 86.45 159.53 86.3 158.76L86.2 158.21C85.83 156.27 85.44 154.33 85.03 152.42L84.9 151.84C84.74 151.08 84.57 150.32 84.4 149.56L84.12 148.34C84 147.79 83.87 147.25 83.74 146.7C83.68 146.44 83.62 146.18 83.55 145.92L83.4 145.28C83.29 144.8 83.17 144.32 83.05 143.85C82.97 143.51 82.88 143.17 82.79 142.83L82.68 142.38C82.56 141.92 82.45 141.46 82.33 141C82.22 140.59 82.12 140.18 82.01 139.78L81.92 139.43C81.81 139.01 81.7 138.58 81.58 138.15C81.47 137.73 81.35 137.32 81.24 136.9L81.19 136.72L81.25 136.7C81.42 136.64 81.58 136.58 81.75 136.53C82.09 136.41 82.44 136.29 82.78 136.18C83.09 136.07 83.4 135.97 83.71 135.86C84.05 135.74 84.39 135.62 84.73 135.5L85.63 135.17C85.94 135.06 86.24 134.94 86.55 134.83L87.52 134.47C87.87 134.34 88.22 134.2 88.56 134.07L89.37 133.76C89.85 133.57 90.32 133.39 90.78 133.2L91.19 133.04C91.8 132.8 92.4 132.55 92.99 132.3L93.42 132.12C93.87 131.93 94.31 131.74 94.76 131.55L95.35 131.29C95.74 131.12 96.12 130.95 96.5 130.78L97.13 130.5C97.49 130.34 97.85 130.17 98.21 130.01L98.85 129.71C99.2 129.55 99.54 129.38 99.88 129.22C100.06 129.13 100.25 129.04 100.43 128.95L100.53 128.9C100.86 128.74 101.2 128.58 101.53 128.41L102.18 128.09C102.5 127.93 102.82 127.77 103.14 127.61L103.79 127.27C104.1 127.11 104.4 126.95 104.7 126.79C104.92 126.67 105.14 126.56 105.36 126.44C105.59 126.31 105.82 126.19 106.06 126.06C106.19 126.41 106.32 126.77 106.45 127.12C106.6 127.54 106.75 127.95 106.89 128.37C107.06 128.86 107.23 129.34 107.4 129.83C107.54 130.22 107.67 130.62 107.8 131.01L107.89 131.28C108.03 131.7 108.17 132.12 108.31 132.54C108.43 132.92 108.56 133.3 108.68 133.68L108.86 134.25C108.97 134.59 109.08 134.93 109.18 135.27C109.3 135.65 109.42 136.04 109.53 136.42L109.71 137.01C109.81 137.34 109.91 137.67 110.01 138C110.13 138.41 110.25 138.83 110.37 139.24L110.56 139.88C110.64 140.17 110.73 140.46 110.81 140.75C110.94 141.22 111.07 141.69 111.2 142.16L111.38 142.81C111.44 143.04 111.51 143.27 111.57 143.5C111.71 144.04 111.85 144.58 111.99 145.12L112.15 145.72C112.2 145.9 112.24 146.08 112.29 146.25C112.47 146.97 112.65 147.69 112.82 148.4L112.97 149C113.41 150.85 113.82 152.72 114.21 154.56L114.33 155.16C114.48 155.88 114.62 156.6 114.76 157.32C114.8 157.52 114.83 157.72 114.87 157.92V157.98C116.18 157.39 117.46 156.77 118.71 156.12C118.64 155.74 118.56 155.36 118.48 154.98L118.45 154.81C118.35 154.32 118.25 153.83 118.15 153.34C118.07 152.94 117.98 152.54 117.89 152.14L117.81 151.77C117.72 151.36 117.63 150.95 117.54 150.54C117.46 150.19 117.38 149.84 117.3 149.48L117.14 148.77C117.06 148.43 116.98 148.08 116.9 147.74C116.82 147.4 116.73 147.05 116.65 146.71L116.47 145.98C116.39 145.64 116.3 145.29 116.21 144.95C116.12 144.59 116.02 144.22 115.93 143.86L115.72 143.05C115.64 142.75 115.57 142.45 115.49 142.16C115.37 141.73 115.25 141.3 115.13 140.87L114.91 140.08C114.84 139.84 114.78 139.6 114.71 139.37C114.45 138.45 114.18 137.53 113.91 136.62C113.84 136.4 113.77 136.17 113.7 135.95L113.45 135.14C113.32 134.71 113.19 134.27 113.05 133.84C112.96 133.56 112.87 133.28 112.78 133L112.54 132.26C112.41 131.86 112.28 131.46 112.15 131.06C112.05 130.76 111.95 130.45 111.84 130.15L111.59 129.42C111.46 129.04 111.34 128.67 111.21 128.29C111.09 127.93 110.96 127.57 110.83 127.21L110.62 126.6C110.49 126.24 110.37 125.89 110.24 125.53C110.09 125.11 109.94 124.7 109.78 124.29L109.67 123.99C109.77 123.93 109.86 123.87 109.96 123.82C110.24 123.65 110.51 123.49 110.78 123.32L110.89 123.25C111.05 123.15 111.21 123.05 111.36 122.96C111.65 122.78 111.94 122.59 112.23 122.41L112.73 122.09C113.08 121.86 113.42 121.64 113.76 121.41L114.07 121.2C114.51 120.9 114.95 120.6 115.38 120.3L115.6 120.14C115.95 119.89 116.3 119.64 116.64 119.4L117.06 119.09C117.33 118.89 117.6 118.69 117.86 118.49C118.01 118.38 118.15 118.27 118.32 118.13C118.56 117.94 118.8 117.75 119.04 117.56C119.2 117.43 119.36 117.31 119.51 117.18C119.74 117 119.96 116.81 120.18 116.63C120.34 116.5 120.49 116.37 120.65 116.24C120.87 116.06 121.08 115.87 121.29 115.69C121.44 115.56 121.6 115.42 121.75 115.29C121.96 115.1 122.17 114.91 122.37 114.73L122.42 114.69C122.55 114.57 122.68 114.46 122.8 114.34C123.01 114.14 123.22 113.94 123.43 113.75L123.55 113.64C123.64 113.55 123.73 113.47 123.82 113.38C124.05 113.15 124.28 112.92 124.51 112.69L124.79 112.41C124.99 112.21 125.18 112.01 125.37 111.8C125.41 111.9 125.45 112 125.5 112.09C125.71 112.58 125.92 113.07 126.13 113.56C126.29 113.94 126.45 114.32 126.6 114.7C126.8 115.19 127 115.69 127.2 116.18C127.35 116.56 127.5 116.94 127.65 117.32C127.85 117.82 128.04 118.31 128.23 118.81L128.28 118.95C128.41 119.28 128.53 119.62 128.66 119.95C128.85 120.45 129.03 120.95 129.21 121.45L129.29 121.67C129.4 121.98 129.51 122.28 129.62 122.59C129.8 123.09 129.97 123.59 130.14 124.1L130.23 124.36C130.33 124.65 130.43 124.95 130.53 125.24C130.7 125.75 130.86 126.25 131.03 126.76L131.11 127.02C131.21 127.31 131.3 127.61 131.4 127.9C131.55 128.38 131.7 128.86 131.84 129.34L131.97 129.76C132.05 130.03 132.14 130.3 132.22 130.57C132.37 131.06 132.51 131.56 132.65 132.06L132.77 132.47C132.85 132.73 132.92 132.99 132.99 133.25C133.11 133.7 133.23 134.14 133.35 134.59L133.52 135.23C133.58 135.46 133.65 135.7 133.71 135.93C133.83 136.4 133.95 136.87 134.07 137.34L134.24 138.02C134.29 138.22 134.34 138.42 134.39 138.61C134.55 139.27 134.7 139.93 134.85 140.58L134.92 140.9C134.95 141.03 134.98 141.16 135.01 141.3C135.21 142.19 135.4 143.08 135.59 143.97C135.62 144.13 135.66 144.3 135.69 144.46C136.89 143.39 138.06 142.3 139.2 141.17C139.18 141.07 139.16 140.97 139.14 140.88L139.18 140.84ZM70.72 35.75L70.88 35.51C71.08 35.21 71.28 34.9 71.46 34.6L71.62 34.34C71.78 34.07 71.93 33.79 72.08 33.52L72.17 33.35C72.33 33.03 72.49 32.72 72.63 32.4L72.74 32.14C72.9 31.78 73.03 31.46 73.14 31.15L73.17 31.08C73.29 30.76 73.39 30.45 73.49 30.12L73.55 29.91C73.61 29.71 73.66 29.51 73.71 29.31C73.81 29.37 73.9 29.43 74 29.49C74.46 29.78 74.92 30.07 75.37 30.37C75.7 30.58 76.02 30.79 76.34 31C76.79 31.3 77.25 31.6 77.7 31.9C78.02 32.11 78.34 32.33 78.66 32.55C79.11 32.86 79.56 33.16 80 33.47C80.31 33.69 80.63 33.91 80.94 34.13C81.39 34.44 81.83 34.76 82.28 35.08L82.35 35.13C82.63 35.33 82.92 35.54 83.2 35.74C83.65 36.06 84.09 36.39 84.53 36.72L84.7 36.85C84.94 37.03 85.18 37.21 85.42 37.39C85.87 37.73 86.31 38.07 86.75 38.41L86.95 38.57C87.17 38.74 87.39 38.91 87.61 39.08C88.04 39.42 88.47 39.75 88.89 40.09L89.23 40.36C89.41 40.5 89.59 40.65 89.77 40.79C90.23 41.16 90.68 41.53 91.13 41.91L91.43 42.16C91.59 42.29 91.74 42.42 91.9 42.55C92.37 42.95 92.84 43.35 93.31 43.75L93.59 43.99C93.72 44.1 93.86 44.22 93.99 44.33C94.51 44.78 95.02 45.23 95.53 45.68L96.06 46.14C96.71 46.72 97.36 47.31 97.99 47.9L98.09 47.99C98.77 48.62 99.45 49.26 100.12 49.9L100.22 49.99C100.85 50.59 101.47 51.2 102.09 51.81L102.62 52.35C103.09 52.82 103.55 53.28 104.01 53.75C104.14 53.89 104.28 54.03 104.41 54.16L104.68 54.44C104.92 54.69 105.16 54.94 105.4 55.19C105.4 55.23 105.4 55.26 105.4 55.3C105.38 55.45 105.37 55.61 105.35 55.76V55.83C105.33 55.91 105.32 56 105.31 56.08C105.29 56.24 105.26 56.41 105.23 56.57L105.18 56.85C105.14 57.05 105.1 57.24 105.06 57.44L105.02 57.64C104.96 57.9 104.89 58.17 104.81 58.46L104.79 58.54C104.72 58.77 104.66 58.99 104.58 59.22L104.49 59.47C104.43 59.65 104.37 59.82 104.3 60C104.27 60.08 104.24 60.16 104.21 60.23L104.19 60.29C104.13 60.45 104.06 60.61 104 60.78C103.96 60.87 103.92 60.96 103.89 61.05L103.87 61.1C103.8 61.26 103.73 61.41 103.66 61.57C103.61 61.68 103.56 61.78 103.51 61.89C103.44 62.04 103.36 62.19 103.28 62.35C103.22 62.46 103.17 62.57 103.11 62.67C103.03 62.82 102.94 62.98 102.86 63.13L102.81 63.21C102.77 63.29 102.72 63.37 102.67 63.45C102.58 63.61 102.48 63.77 102.39 63.92L102.21 64.22C102.1 64.4 101.99 64.57 101.87 64.74L101.71 64.99C101.63 65.12 101.54 65.24 101.45 65.37C101.28 65.17 101.12 64.97 100.95 64.77C100.57 64.32 100.19 63.87 99.81 63.43L99.74 63.35C99.52 63.09 99.29 62.83 99.07 62.57C98.68 62.12 98.28 61.67 97.89 61.22L97.73 61.04C97.54 60.82 97.35 60.61 97.16 60.39C96.75 59.93 96.33 59.47 95.92 59.02L95.69 58.77C95.53 58.6 95.37 58.42 95.22 58.25C94.79 57.78 94.35 57.31 93.91 56.84L93.69 56.61C93.54 56.45 93.39 56.29 93.24 56.13C92.77 55.63 92.29 55.14 91.82 54.65L91.6 54.42C91.48 54.29 91.35 54.16 91.23 54.04C90.7 53.5 90.16 52.96 89.62 52.42L89.19 51.98C88.51 51.31 87.83 50.64 87.12 49.95C85.71 48.59 84.26 47.24 82.81 45.92L82.49 45.64C81.88 45.09 81.26 44.54 80.64 43.99L80.04 43.47C79.51 43.01 78.99 42.55 78.45 42.1C78.29 41.97 78.14 41.83 77.98 41.7L77.7 41.46C77.21 41.05 76.72 40.64 76.23 40.23C76.04 40.07 75.85 39.92 75.67 39.77L75.39 39.54C74.92 39.16 74.46 38.77 73.99 38.4C73.76 38.22 73.53 38.04 73.3 37.85L73.07 37.67C72.62 37.31 72.16 36.95 71.71 36.59C71.46 36.4 71.21 36.2 70.96 36.01L70.84 35.92L70.69 35.8C70.69 35.79 70.7 35.78 70.71 35.77L70.72 35.75ZM60.15 45.44L60.25 45.38C60.69 45.09 61.12 44.8 61.54 44.51L61.77 44.35C62.18 44.06 62.58 43.78 62.97 43.48L63.16 43.33C63.56 43.03 63.96 42.72 64.35 42.41L64.38 42.38C64.76 42.08 65.12 41.77 65.47 41.47L65.63 41.33C65.98 41.02 66.32 40.72 66.64 40.41L66.81 40.25C67.14 39.93 67.46 39.62 67.77 39.3L67.85 39.22C67.93 39.13 68.01 39.05 68.09 38.96C68.11 38.98 68.13 38.99 68.15 39.01L68.23 39.07C68.55 39.32 68.88 39.57 69.2 39.82C69.56 40.1 69.92 40.39 70.28 40.67L70.61 40.93C70.89 41.15 71.16 41.37 71.44 41.59C71.82 41.9 72.2 42.2 72.58 42.51L72.88 42.75C73.14 42.96 73.4 43.17 73.66 43.39C73.99 43.67 74.32 43.95 74.66 44.23L75.14 44.63C75.38 44.83 75.61 45.03 75.85 45.23C76.19 45.52 76.53 45.82 76.87 46.11L77.42 46.59C77.62 46.76 77.81 46.93 78.01 47.1C78.36 47.41 78.71 47.73 79.06 48.04L79.61 48.53C79.79 48.69 79.96 48.84 80.14 49C80.56 49.38 80.97 49.76 81.38 50.14L81.79 50.52C81.94 50.66 82.09 50.79 82.24 50.93C82.79 51.44 83.33 51.96 83.87 52.47L84.31 52.89C85 53.55 85.68 54.22 86.35 54.89L86.75 55.29C87.29 55.83 87.83 56.37 88.36 56.91C88.5 57.05 88.63 57.19 88.76 57.33L89.24 57.82C89.61 58.2 89.97 58.58 90.34 58.96C90.51 59.14 90.67 59.31 90.84 59.49L91.35 60.03C91.66 60.36 91.98 60.7 92.29 61.04C92.46 61.22 92.62 61.41 92.79 61.59L93.32 62.18C93.61 62.5 93.91 62.83 94.2 63.15C94.4 63.37 94.59 63.59 94.78 63.81L95.25 64.35C95.52 64.66 95.8 64.97 96.07 65.29C96.28 65.53 96.48 65.77 96.68 66.01L97.03 66.42C97.32 66.76 97.62 67.11 97.91 67.45C98.15 67.73 98.38 68.01 98.61 68.29L98.76 68.48C98.76 68.48 98.83 68.57 98.87 68.62C98.82 68.68 98.77 68.73 98.72 68.79C98.62 68.9 98.51 69.01 98.41 69.12C98.28 69.26 98.15 69.4 98.01 69.54C97.9 69.65 97.79 69.76 97.68 69.87C97.54 70.01 97.4 70.15 97.26 70.29C97.15 70.4 97.04 70.51 96.92 70.62C96.77 70.76 96.62 70.9 96.47 71.04C96.36 71.15 96.24 71.25 96.13 71.36C95.97 71.51 95.81 71.65 95.65 71.79L95.31 72.09C95.15 72.23 94.98 72.38 94.81 72.52L94.45 72.83C94.23 73.02 94 73.2 93.77 73.39L93.57 73.56C93.26 73.8 92.95 74.05 92.64 74.29L92.51 74.39C92.24 74.6 91.96 74.81 91.69 75.01L91.39 75.22C91.16 75.39 90.92 75.56 90.69 75.73L90.35 75.97C90.12 76.13 89.89 76.29 89.66 76.45L89.3 76.69C89.07 76.85 88.83 77 88.59 77.16L88.22 77.4C87.97 77.56 87.73 77.72 87.48 77.87L87.12 78.09C86.94 78.2 86.76 78.31 86.58 78.42L86.37 78.1C86.19 77.83 86.02 77.57 85.84 77.3C85.54 76.85 85.24 76.41 84.93 75.97L84.65 75.57C84.5 75.35 84.34 75.12 84.19 74.9C83.9 74.48 83.61 74.07 83.32 73.66L83.01 73.22C82.85 72.99 82.68 72.75 82.52 72.52C82.25 72.14 81.98 71.77 81.71 71.4L81.3 70.83C81.14 70.61 80.98 70.39 80.82 70.17C80.51 69.75 80.21 69.34 79.9 68.92L79.54 68.43C79.4 68.23 79.25 68.04 79.1 67.84C78.78 67.42 78.46 66.99 78.14 66.57L77.75 66.06C77.62 65.89 77.49 65.71 77.35 65.54C76.77 64.79 76.19 64.04 75.6 63.3C75.48 63.15 75.36 62.99 75.23 62.84L74.71 62.2C74.41 61.82 74.1 61.44 73.79 61.06C73.61 60.84 73.43 60.62 73.25 60.41L72.78 59.84C72.51 59.51 72.24 59.18 71.97 58.86C71.78 58.63 71.59 58.41 71.4 58.19L70.93 57.64C70.66 57.32 70.39 57 70.11 56.68C69.89 56.43 69.68 56.18 69.46 55.93L69.12 55.54C68.82 55.2 68.53 54.86 68.23 54.52C68.01 54.28 67.8 54.03 67.58 53.79L67.22 53.39C66.92 53.06 66.62 52.72 66.32 52.39C66.1 52.14 65.87 51.9 65.65 51.65L65.44 51.43C65.09 51.05 64.74 50.66 64.38 50.28C64.13 50.02 63.89 49.75 63.64 49.49L63.51 49.35C63.15 48.97 62.79 48.58 62.42 48.2C62.13 47.9 61.84 47.6 61.55 47.3C61.18 46.91 60.8 46.53 60.42 46.15C60.25 45.98 60.09 45.81 59.92 45.65L59.96 45.63L59.92 45.59C60 45.54 60.07 45.49 60.15 45.44ZM42.83 53.63C42.9 53.61 42.97 53.58 43.03 53.56C43.51 53.39 43.99 53.22 44.46 53.04L44.59 52.99C44.83 52.9 45.07 52.81 45.31 52.72C45.78 52.54 46.25 52.36 46.72 52.17L46.96 52.07C47.15 52 47.33 51.92 47.51 51.85C48.01 51.65 48.5 51.44 48.98 51.24L49.24 51.13C49.37 51.07 49.5 51.02 49.63 50.96C50.31 50.66 50.99 50.36 51.64 50.06C51.74 50.01 51.85 49.96 51.95 49.91L52.16 49.81C52.64 49.58 53.12 49.35 53.59 49.12C53.77 49.03 53.94 48.94 54.12 48.85L54.37 48.72C54.74 48.53 55.11 48.34 55.47 48.15C55.68 48.04 55.9 47.92 56.11 47.81L56.22 47.75C56.28 47.81 56.34 47.87 56.41 47.94L56.67 48.2C56.91 48.44 57.14 48.67 57.38 48.91C57.67 49.2 57.95 49.49 58.23 49.78L58.6 50.16C58.85 50.41 59.09 50.66 59.34 50.92C59.58 51.17 59.83 51.43 60.07 51.69L60.56 52.2C60.8 52.45 61.04 52.7 61.27 52.96C61.5 53.2 61.72 53.45 61.95 53.7L62.49 54.29C62.72 54.54 62.94 54.78 63.17 55.03C63.38 55.27 63.6 55.5 63.81 55.74L64.38 56.38C64.6 56.63 64.82 56.87 65.05 57.12C65.28 57.38 65.51 57.65 65.75 57.92L66.27 58.51C66.48 58.75 66.69 59 66.91 59.24C67.21 59.59 67.51 59.95 67.81 60.3L68.04 60.57C68.52 61.14 69 61.72 69.48 62.29L69.75 62.61C70 62.92 70.26 63.22 70.51 63.53C70.68 63.74 70.85 63.94 71.01 64.15L71.53 64.79C71.78 65.1 72.04 65.42 72.29 65.73C72.47 65.96 72.65 66.18 72.82 66.41L73.34 67.07C73.57 67.37 73.81 67.67 74.04 67.97C74.21 68.19 74.38 68.41 74.55 68.64L74.93 69.13C75.21 69.5 75.49 69.86 75.77 70.23C75.94 70.46 76.11 70.68 76.27 70.91L76.67 71.45C76.94 71.81 77.2 72.17 77.46 72.52C77.64 72.76 77.81 73 77.99 73.25L78.27 73.64C78.56 74.04 78.85 74.44 79.14 74.85C79.31 75.09 79.47 75.32 79.64 75.56L79.85 75.86C80.16 76.3 80.47 76.75 80.78 77.2C80.94 77.43 81.1 77.66 81.25 77.89L81.58 78.37C81.85 78.77 82.13 79.17 82.4 79.58C82.57 79.83 82.74 80.09 82.91 80.34L83.02 80.51C82.88 80.59 82.74 80.66 82.6 80.74L82.17 80.97C81.9 81.11 81.62 81.26 81.35 81.4L80.89 81.64C80.62 81.78 80.35 81.92 80.07 82.06L79.59 82.3C79.31 82.44 79.03 82.57 78.76 82.71L78.27 82.95C77.99 83.09 77.7 83.22 77.41 83.36L76.92 83.59C76.62 83.73 76.32 83.87 76.01 84L75.55 84.21C75.22 84.36 74.89 84.5 74.55 84.65L74.15 84.83C73.74 85.01 73.32 85.18 72.9 85.36L72.72 85.44C72.23 85.64 71.74 85.85 71.25 86.05L71.1 86.11C70.66 86.29 70.22 86.46 69.78 86.63L69.22 86.85C68.91 86.97 68.6 87.09 68.29 87.21L67.68 87.44C67.38 87.55 67.07 87.66 66.77 87.78L66.09 88.02C65.8 88.12 65.52 88.23 65.23 88.33L64.49 88.59C64.22 88.68 63.95 88.78 63.67 88.87C63.57 88.9 63.47 88.94 63.37 88.97C63.15 88.52 62.93 88.06 62.71 87.61C62.55 87.28 62.39 86.96 62.23 86.64L61.98 86.13C61.81 85.78 61.64 85.44 61.47 85.1C61.32 84.8 61.17 84.5 61.02 84.2L60.63 83.42C60.49 83.14 60.35 82.86 60.2 82.59C60 82.2 59.8 81.81 59.59 81.42L59.29 80.84C59.16 80.59 59.03 80.34 58.9 80.1C58.64 79.62 58.39 79.13 58.13 78.65L57.58 77.62C56.69 75.98 55.78 74.33 54.86 72.71L54.52 72.12C54.17 71.51 53.82 70.9 53.47 70.3L52.89 69.32C52.61 68.85 52.34 68.38 52.06 67.92L51.51 67.01C51.22 66.52 50.92 66.04 50.63 65.56C50.49 65.33 50.34 65.1 50.2 64.86L50.04 64.61C49.75 64.15 49.47 63.68 49.18 63.23C49.03 62.99 48.88 62.75 48.72 62.51L48.55 62.25C48.27 61.81 47.99 61.36 47.7 60.92L47.02 59.88C46.75 59.47 46.48 59.05 46.21 58.64C45.99 58.31 45.77 57.98 45.55 57.65C45.27 57.23 44.98 56.8 44.7 56.38C44.51 56.1 44.32 55.82 44.13 55.54L44.03 55.39C43.74 54.97 43.46 54.55 43.17 54.14C43.07 54 42.98 53.87 42.88 53.73H42.9L42.89 53.71L42.83 53.63ZM34.58 96.23C34.27 96.29 33.95 96.35 33.64 96.4L33.58 96.2C33.47 95.82 33.36 95.44 33.25 95.06L32.8 93.54C32.69 93.16 32.58 92.79 32.46 92.41L32.01 90.94C31.89 90.55 31.77 90.17 31.66 89.78L31.18 88.24C31.07 87.88 30.96 87.52 30.84 87.17L30.35 85.64C30.24 85.29 30.12 84.93 30.01 84.58C29.91 84.26 29.8 83.95 29.7 83.63L29.59 83.3C29.37 82.63 29.15 81.96 28.92 81.29L28.84 81.04C28.67 80.53 28.5 80.02 28.33 79.52L27.8 77.99C27.68 77.66 27.57 77.32 27.45 76.99C27.35 76.71 27.25 76.43 27.15 76.15L26.94 75.56C26.81 75.2 26.69 74.84 26.56 74.48L26.08 73.13C25.94 72.75 25.8 72.36 25.66 71.98L25.19 70.72C25.04 70.31 24.89 69.91 24.74 69.51L24.35 68.48C24.17 68.01 23.99 67.53 23.81 67.06L23.43 66.07C23.24 65.59 23.06 65.11 22.87 64.63L22.5 63.69C22.31 63.2 22.11 62.71 21.92 62.22L21.56 61.32C21.36 60.82 21.15 60.32 20.95 59.82L20.8 59.45H20.82L20.81 59.42C21.08 59.37 21.34 59.32 21.61 59.27C22.17 59.16 22.72 59.05 23.28 58.94L23.53 58.89C23.81 58.83 24.1 58.78 24.38 58.72C24.97 58.6 25.56 58.47 26.14 58.34L26.46 58.27C26.67 58.22 26.88 58.18 27.09 58.13C27.77 57.98 28.45 57.82 29.12 57.66L29.75 57.51C30.64 57.29 31.53 57.07 32.42 56.84C33.28 56.62 34.12 56.38 34.96 56.15C35.1 56.11 35.24 56.07 35.38 56.03L35.69 55.94C36.28 55.77 36.88 55.6 37.46 55.42C37.66 55.36 37.86 55.3 38.06 55.24L38.76 55.02C38.83 55.11 38.89 55.21 38.96 55.3L39.07 55.46C39.25 55.72 39.43 55.97 39.61 56.23C39.87 56.6 40.12 56.97 40.38 57.34L41.12 58.42C41.41 58.85 41.7 59.28 41.98 59.7L42.61 60.64C42.9 61.07 43.18 61.51 43.46 61.94L44.08 62.89C44.44 63.45 44.81 64.02 45.17 64.59L45.54 65.16C46.99 67.46 48.43 69.83 49.82 72.21L50.05 72.61C50.43 73.27 50.82 73.93 51.19 74.59L51.54 75.21C51.88 75.81 52.21 76.4 52.55 77L52.95 77.73C53.26 78.3 53.58 78.86 53.88 79.44L54.31 80.24C54.61 80.79 54.9 81.34 55.2 81.9L55.65 82.76C55.93 83.3 56.21 83.84 56.49 84.38L56.95 85.29C57.22 85.82 57.49 86.35 57.75 86.88C57.88 87.15 58.02 87.42 58.15 87.69L58.22 87.84C58.48 88.36 58.73 88.88 58.99 89.4C59.12 89.67 59.26 89.95 59.39 90.22C59.37 90.22 59.35 90.23 59.34 90.24L59.07 90.32C58.64 90.45 58.21 90.59 57.77 90.72C57.23 90.88 56.69 91.04 56.15 91.2L55.42 91.41C55.07 91.51 54.71 91.62 54.36 91.72C53.77 91.89 53.17 92.05 52.57 92.21L51.83 92.41C51.51 92.5 51.19 92.58 50.87 92.67C50.11 92.87 49.34 93.06 48.57 93.25L48.01 93.39C47.77 93.45 47.53 93.51 47.29 93.57C46.07 93.86 44.85 94.15 43.66 94.42C43.51 94.45 43.36 94.49 43.21 94.52L42.83 94.6C41.87 94.81 40.9 95.02 39.93 95.23C39.65 95.29 39.37 95.34 39.09 95.4L38.3 95.56C37.58 95.71 36.85 95.85 36.12 95.99C35.79 96.05 35.46 96.11 35.12 96.17L34.61 96.26L34.58 96.23ZM75.56 134.25L74.7 134.52C74.32 134.64 73.93 134.76 73.55 134.87L72.64 135.14C72.26 135.25 71.88 135.36 71.5 135.48L70.54 135.76C70.17 135.87 69.8 135.97 69.43 136.08L67.33 136.66C67.02 136.74 66.72 136.82 66.41 136.91L65.21 137.23C64.8 137.34 64.39 137.44 63.97 137.55L63.06 137.78C62.46 137.93 61.85 138.08 61.25 138.23L60.89 138.32C60.15 138.5 59.41 138.68 58.66 138.85L58.41 138.91C57.75 139.06 57.09 139.22 56.42 139.37L55.88 139.49C55.31 139.62 54.73 139.74 54.16 139.87L53.52 140.01C52.97 140.13 52.42 140.24 51.87 140.36L51.18 140.5C50.64 140.61 50.1 140.72 49.55 140.83L48.84 140.97C48.3 141.08 47.76 141.18 47.22 141.28L46.5 141.41C45.95 141.51 45.4 141.61 44.85 141.71L44.19 141.83C44.13 141.5 44.07 141.17 44.01 140.84L43.7 139.12C43.62 138.65 43.53 138.19 43.45 137.73C43.23 136.57 43.01 135.42 42.78 134.26L42.57 133.19C42.5 132.81 42.42 132.43 42.35 132.04C42.05 130.52 41.73 129.01 41.41 127.5L41.3 126.98C41.26 126.79 41.22 126.59 41.18 126.4C40.38 122.65 39.51 118.86 38.61 115.14C38.54 114.84 38.46 114.54 38.39 114.24L38.23 113.6C37.9 112.27 37.58 110.94 37.24 109.61C37.13 109.19 37.02 108.77 36.91 108.35L36.56 107.03C36.31 106.06 36.06 105.1 35.8 104.14C35.65 103.59 35.5 103.04 35.34 102.48L34.88 100.81C34.84 100.67 34.8 100.53 34.76 100.39L35.62 100.23C36.07 100.15 36.53 100.06 36.98 99.98C37.64 99.86 38.29 99.72 38.93 99.59L39.79 99.42C40.14 99.35 40.49 99.28 40.83 99.21C41.64 99.04 42.44 98.87 43.25 98.69L43.84 98.56C44.1 98.5 44.37 98.45 44.63 98.39C45.76 98.14 46.89 97.87 48 97.6L48.36 97.52C49.56 97.23 50.8 96.92 52.03 96.59C52.22 96.54 52.4 96.49 52.59 96.44L52.99 96.33C53.87 96.09 54.75 95.86 55.62 95.61C55.87 95.54 56.12 95.47 56.37 95.39L56.92 95.23C57.66 95.02 58.4 94.8 59.13 94.58C59.41 94.5 59.68 94.41 59.96 94.32L60.94 94.02C61.02 94 61.09 93.97 61.17 93.95C61.26 94.14 61.35 94.33 61.43 94.52L61.7 95.11C62.02 95.8 62.33 96.49 62.64 97.19L62.88 97.72C63.2 98.44 63.52 99.16 63.84 99.88L64.04 100.34C64.37 101.1 64.7 101.86 65.02 102.62L65.17 102.98C65.51 103.79 65.85 104.59 66.18 105.4L66.28 105.64C67.74 109.2 69.15 112.83 70.46 116.45L70.69 117.09C70.93 117.77 71.18 118.45 71.42 119.13C71.5 119.36 71.58 119.6 71.66 119.83L71.88 120.46C72.04 120.91 72.19 121.36 72.35 121.82C72.46 122.14 72.56 122.45 72.67 122.77L72.91 123.48C73.03 123.83 73.14 124.18 73.26 124.53C73.39 124.93 73.52 125.34 73.65 125.74L73.82 126.27C73.93 126.6 74.03 126.92 74.13 127.25C74.27 127.67 74.4 128.1 74.53 128.53L74.7 129.06C74.8 129.36 74.89 129.67 74.98 129.97C75.14 130.48 75.29 130.99 75.44 131.5C75.56 131.9 75.68 132.3 75.8 132.7C75.93 133.15 76.06 133.6 76.19 134.05C75.98 134.12 75.77 134.18 75.56 134.25ZM104.4 122.3C104.1 122.46 103.8 122.63 103.5 122.79C103.3 122.9 103.1 123.01 102.9 123.11C102.6 123.27 102.29 123.43 101.98 123.59L101.92 123.62C101.74 123.72 101.55 123.81 101.36 123.91C101.05 124.07 100.73 124.23 100.41 124.39L99.8 124.7C99.47 124.86 99.14 125.02 98.81 125.18L98.2 125.48C97.87 125.64 97.53 125.8 97.19 125.96L96.57 126.25C96.18 126.43 95.78 126.61 95.38 126.79L94.9 127.01C94.37 127.25 93.84 127.48 93.3 127.71L93.2 127.75C92.63 128 92.05 128.24 91.47 128.48L90.84 128.74C90.47 128.89 90.09 129.05 89.72 129.2L88.74 129.59C88.47 129.7 88.21 129.8 87.94 129.91C87.73 129.99 87.52 130.07 87.31 130.15L87.11 130.23C86.78 130.36 86.45 130.48 86.12 130.61L85.17 130.96C84.87 131.07 84.57 131.18 84.27 131.29L82.4 131.96C82.08 132.07 81.75 132.19 81.43 132.3C81.12 132.41 80.81 132.51 80.5 132.62C80.36 132.67 80.22 132.72 80.08 132.76L80.03 132.58C79.93 132.24 79.83 131.91 79.74 131.57C79.61 131.13 79.48 130.7 79.35 130.26L79.2 129.77C79.1 129.44 79 129.1 78.9 128.77C78.79 128.39 78.67 128.02 78.55 127.64L78.35 126.99C78.24 126.65 78.14 126.32 78.03 125.98C77.92 125.64 77.81 125.3 77.7 124.97L77.53 124.46C77.4 124.04 77.26 123.63 77.13 123.21C77.03 122.9 76.93 122.6 76.82 122.29L76.61 121.67C76.47 121.26 76.34 120.86 76.2 120.45C76.11 120.18 76.01 119.91 75.92 119.63L75.66 118.87C75.53 118.48 75.39 118.09 75.25 117.7L74.9 116.72C74.18 114.69 73.42 112.62 72.64 110.59L72.28 109.65C72.14 109.28 71.99 108.91 71.85 108.54L71.56 107.79C71.45 107.51 71.34 107.23 71.23 106.95C71.08 106.58 70.93 106.21 70.78 105.84L70.51 105.17C70.39 104.87 70.27 104.57 70.14 104.26C70 103.91 69.85 103.56 69.7 103.2L69.44 102.57C69.3 102.24 69.17 101.91 69.03 101.58C68.87 101.21 68.71 100.84 68.56 100.47L68.37 100.04C68.21 99.67 68.05 99.3 67.89 98.93C67.72 98.53 67.54 98.13 67.37 97.73L67.23 97.42C67.06 97.04 66.9 96.66 66.73 96.29C66.56 95.91 66.39 95.53 66.22 95.15L66.09 94.87C65.91 94.47 65.73 94.07 65.54 93.67C65.38 93.33 65.22 92.98 65.07 92.64C65.36 92.54 65.66 92.44 65.95 92.34L66.57 92.12C66.9 92 67.23 91.89 67.56 91.77L68.18 91.54C68.5 91.42 68.82 91.3 69.14 91.18L69.76 90.95C70.08 90.83 70.39 90.71 70.71 90.59L71.31 90.36C71.63 90.23 71.95 90.11 72.27 89.98L72.83 89.76C73.18 89.62 73.53 89.47 73.88 89.33L74.32 89.15C74.81 88.94 75.3 88.74 75.79 88.53L75.94 88.46C76.37 88.27 76.8 88.09 77.22 87.9L77.73 87.67C78.03 87.53 78.33 87.4 78.63 87.26L79.21 86.99C79.48 86.86 79.74 86.74 80.01 86.61L80.62 86.31C80.87 86.19 81.12 86.07 81.37 85.95L83.32 84.96C83.54 84.84 83.76 84.73 83.98 84.61C84.2 84.5 84.41 84.38 84.62 84.27L85.19 83.96L85.28 84.1C85.5 84.45 85.73 84.8 85.95 85.15C86.16 85.48 86.37 85.82 86.57 86.15L86.92 86.71C87.1 87 87.28 87.29 87.46 87.59C87.68 87.95 87.9 88.32 88.12 88.69L88.36 89.09C88.55 89.41 88.74 89.73 88.93 90.05C89.14 90.4 89.34 90.75 89.55 91.11L89.86 91.64C90.03 91.93 90.2 92.23 90.37 92.52C90.58 92.89 90.79 93.25 90.99 93.62L91.35 94.26C91.49 94.51 91.64 94.76 91.78 95.01C92.02 95.43 92.25 95.86 92.48 96.29L92.81 96.9C92.92 97.11 93.04 97.32 93.15 97.53C93.46 98.1 93.76 98.67 94.06 99.24L94.24 99.58C94.33 99.74 94.41 99.9 94.49 100.06C94.91 100.86 95.32 101.65 95.73 102.45L95.81 102.6C96.25 103.46 96.68 104.32 97.1 105.19L97.26 105.51C97.63 106.26 97.99 107.01 98.35 107.77L98.69 108.49C98.98 109.11 99.28 109.73 99.56 110.36C99.64 110.54 99.72 110.71 99.8 110.89L100.06 111.47C100.29 111.97 100.51 112.47 100.73 112.97L101.23 114.13C101.44 114.62 101.66 115.1 101.86 115.59C101.96 115.82 102.05 116.05 102.15 116.28L102.28 116.6C102.51 117.14 102.73 117.68 102.96 118.22C103.07 118.48 103.17 118.73 103.27 118.99L103.39 119.28C103.6 119.81 103.82 120.33 104.03 120.86C104.13 121.12 104.23 121.37 104.33 121.63L104.45 121.95C104.48 122.03 104.51 122.11 104.55 122.2C104.48 122.24 104.4 122.28 104.33 122.32L104.4 122.3ZM123.42 107.84C123.28 108 123.13 108.17 122.98 108.33C122.85 108.47 122.72 108.62 122.59 108.76C122.44 108.93 122.28 109.09 122.12 109.26L122.03 109.35C121.93 109.46 121.82 109.57 121.71 109.68C121.54 109.85 121.37 110.02 121.2 110.19L121.07 110.32C120.98 110.41 120.88 110.5 120.79 110.59C120.62 110.75 120.45 110.92 120.27 111.08L120.09 111.25C120 111.33 119.92 111.41 119.83 111.5C119.61 111.7 119.39 111.9 119.17 112.1L118.83 112.4C118.49 112.7 118.15 112.99 117.79 113.29L117.51 113.52C117.25 113.74 116.98 113.96 116.71 114.18C116.62 114.25 116.53 114.32 116.44 114.39L116.27 114.52C116.04 114.7 115.82 114.88 115.58 115.06C115.47 115.14 115.36 115.23 115.24 115.31L114.98 115.51C114.79 115.65 114.6 115.79 114.41 115.93C114.27 116.03 114.13 116.14 113.98 116.24L113.87 116.32C113.65 116.48 113.43 116.64 113.21 116.8C113.02 116.93 112.83 117.07 112.64 117.2C112.42 117.35 112.2 117.51 111.97 117.66C111.77 117.8 111.57 117.93 111.37 118.06C111.15 118.21 110.92 118.36 110.69 118.51C110.48 118.65 110.27 118.79 110.06 118.92C109.83 119.06 109.61 119.21 109.38 119.35C109.16 119.49 108.94 119.63 108.71 119.77C108.54 119.87 108.38 119.98 108.21 120.08C108.09 119.78 107.98 119.48 107.86 119.18C107.66 118.67 107.45 118.16 107.25 117.66L107.19 117.52C107.05 117.18 106.92 116.85 106.78 116.51C106.56 115.99 106.34 115.46 106.12 114.94L106.06 114.81C105.93 114.49 105.79 114.17 105.65 113.85C105.43 113.33 105.2 112.81 104.98 112.3L104.5 111.2C104.25 110.64 104 110.09 103.75 109.53L103.61 109.22C103.51 109 103.41 108.78 103.31 108.56C103.05 107.99 102.79 107.43 102.52 106.87L102.08 105.93C101.78 105.3 101.47 104.67 101.17 104.04L100.82 103.31C100.45 102.55 100.07 101.8 99.69 101.05L99.52 100.71C99.08 99.84 98.63 98.97 98.18 98.11L97.93 97.64C97.56 96.94 97.19 96.25 96.82 95.55C96.71 95.34 96.59 95.13 96.48 94.93L96.16 94.35C95.92 93.9 95.67 93.45 95.42 93.01C95.28 92.76 95.14 92.5 94.99 92.25L94.64 91.63C94.42 91.25 94.21 90.86 93.99 90.48C93.82 90.19 93.65 89.89 93.48 89.6L93.19 89.11C92.97 88.73 92.75 88.35 92.53 87.98C92.35 87.67 92.17 87.37 91.98 87.07L91.63 86.49C91.43 86.16 91.23 85.83 91.03 85.49C90.82 85.15 90.61 84.81 90.4 84.48L90.15 84.07C89.93 83.72 89.71 83.37 89.49 83.02C89.26 82.65 89.02 82.28 88.79 81.91C88.94 81.82 89.09 81.73 89.24 81.63L89.69 81.35C89.93 81.2 90.17 81.05 90.41 80.89L90.84 80.61C91.09 80.45 91.33 80.29 91.57 80.13L91.96 79.87C92.22 79.69 92.48 79.51 92.74 79.33L93.04 79.12C93.39 78.87 93.74 78.62 94.09 78.37C94.44 78.11 94.79 77.85 95.14 77.58L95.29 77.46C95.57 77.24 95.85 77.02 96.12 76.8L96.39 76.58C96.62 76.39 96.85 76.2 97.07 76.02L97.37 75.76C97.58 75.58 97.79 75.4 97.99 75.22L98.3 74.95C98.5 74.77 98.7 74.59 98.89 74.42L99.19 74.15C99.39 73.97 99.58 73.78 99.77 73.6L100.04 73.34C100.24 73.14 100.44 72.94 100.64 72.74L100.85 72.52C101.05 72.31 101.26 72.1 101.47 71.87C101.67 72.13 101.88 72.39 102.08 72.65C102.38 73.04 102.68 73.42 102.98 73.81C103.26 74.17 103.53 74.53 103.81 74.89C104.12 75.29 104.42 75.7 104.72 76.11L104.88 76.32C105.09 76.6 105.3 76.88 105.5 77.16C105.81 77.58 106.12 78.01 106.42 78.43L106.6 78.67C106.79 78.93 106.97 79.19 107.16 79.44C107.48 79.88 107.79 80.33 108.1 80.78L108.3 81.07C108.46 81.3 108.62 81.53 108.78 81.76C109.07 82.18 109.35 82.6 109.64 83.02L109.94 83.47C110.08 83.68 110.22 83.89 110.36 84.1C110.68 84.58 111 85.07 111.31 85.56L111.53 85.9C111.65 86.09 111.78 86.27 111.9 86.46C112.25 87.01 112.6 87.56 112.95 88.11L113.41 88.84C113.8 89.47 114.18 90.1 114.57 90.73L114.88 91.24C115.85 92.86 116.81 94.51 117.72 96.15L117.79 96.28C118.22 97.05 118.64 97.82 119.06 98.6C119.14 98.75 119.22 98.91 119.3 99.06L119.5 99.43C119.79 99.97 120.08 100.52 120.36 101.06C120.47 101.28 120.59 101.51 120.7 101.73L121 102.32C121.21 102.72 121.41 103.13 121.62 103.54C121.76 103.81 121.89 104.08 122.02 104.36L122.36 105.05C122.52 105.38 122.68 105.7 122.83 106.03C123 106.38 123.16 106.74 123.33 107.09L123.53 107.51C123.53 107.51 123.58 107.61 123.6 107.66C123.55 107.72 123.5 107.77 123.45 107.83L123.42 107.84ZM128.31 100.87C128.19 101.09 128.07 101.31 127.95 101.53L127.79 101.82C127.64 102.08 127.49 102.33 127.33 102.6L127.22 102.78C126.96 103.2 126.69 103.62 126.4 104.04C126.4 104.02 126.38 104.01 126.38 103.99C126.14 103.48 125.89 102.98 125.64 102.47C125.47 102.12 125.29 101.77 125.12 101.42C124.87 100.92 124.62 100.43 124.37 99.93C124.19 99.57 124.01 99.22 123.82 98.86C123.57 98.38 123.31 97.89 123.06 97.41L122.99 97.28C122.82 96.96 122.65 96.65 122.48 96.33C122.22 95.86 121.96 95.38 121.7 94.91L121.62 94.76C121.45 94.45 121.28 94.14 121.1 93.82C120.84 93.35 120.57 92.88 120.3 92.42L120.17 92.19C120.01 91.9 119.84 91.62 119.68 91.33C119.43 90.9 119.17 90.47 118.92 90.03L118.68 89.63C118.53 89.37 118.38 89.12 118.22 88.86C117.97 88.44 117.71 88.03 117.46 87.61L117.21 87.2C117.05 86.94 116.89 86.68 116.73 86.42C116.47 86 116.2 85.58 115.93 85.15L115.61 84.64C115.47 84.42 115.34 84.21 115.2 83.99C114.85 83.45 114.5 82.91 114.14 82.38L113.93 82.06C113.83 81.9 113.72 81.75 113.62 81.59C113.09 80.79 112.55 80 112.01 79.21L111.83 78.96C111.34 78.25 110.85 77.55 110.35 76.85C110.25 76.71 110.15 76.57 110.05 76.43L109.85 76.15C109.45 75.6 109.06 75.05 108.66 74.5C108.55 74.35 108.43 74.19 108.32 74.04L108.08 73.72C107.69 73.2 107.31 72.68 106.92 72.16L106.32 71.38C105.93 70.87 105.53 70.35 105.13 69.84L104.23 68.7C104.23 68.7 104.18 68.64 104.16 68.61C104.25 68.49 104.34 68.37 104.43 68.24L104.63 67.96C104.78 67.74 104.93 67.53 105.08 67.31L105.23 67.09C105.42 66.8 105.61 66.51 105.79 66.22L105.86 66.1C106.01 65.85 106.16 65.6 106.31 65.35L106.46 65.08C106.58 64.87 106.69 64.66 106.8 64.45L106.95 64.16C107.06 63.95 107.16 63.73 107.27 63.52L107.39 63.27C107.67 62.67 107.92 62.06 108.15 61.46L108.23 61.23C108.31 61 108.39 60.77 108.47 60.54L108.56 60.26C108.63 60.04 108.7 59.82 108.76 59.6L108.84 59.33C108.88 59.2 108.91 59.06 108.95 58.93C109.16 59.17 109.37 59.4 109.58 59.64C109.78 59.87 109.97 60.09 110.17 60.32L110.31 60.48C110.66 60.89 111.02 61.3 111.37 61.71C111.61 61.99 111.85 62.27 112.08 62.56C112.43 62.97 112.77 63.39 113.12 63.81C113.35 64.09 113.58 64.38 113.81 64.66C114.15 65.08 114.49 65.5 114.83 65.92C115.06 66.2 115.28 66.49 115.5 66.78C115.83 67.21 116.17 67.64 116.5 68.07C116.72 68.36 116.94 68.64 117.15 68.93C117.48 69.37 117.8 69.8 118.13 70.24C118.34 70.52 118.55 70.81 118.76 71.1C119.08 71.55 119.4 71.99 119.72 72.44L119.75 72.48C119.94 72.75 120.14 73.02 120.33 73.29C120.65 73.75 120.97 74.21 121.28 74.67L121.44 74.9C121.58 75.1 121.72 75.31 121.86 75.51C122.18 75.98 122.49 76.46 122.81 76.94L122.97 77.18C123.1 77.37 123.22 77.56 123.35 77.76C123.67 78.26 123.99 78.75 124.3 79.25L124.48 79.53C124.58 79.69 124.68 79.85 124.79 80.01C125.12 80.54 125.45 81.08 125.77 81.61L126.18 82.29C126.54 82.9 126.9 83.51 127.26 84.12L127.54 84.6C128.44 86.16 129.31 87.74 130.15 89.31L130.33 89.65C130.61 90.18 130.89 90.72 131.16 91.26C131.16 91.34 131.15 91.41 131.14 91.49L131.12 91.8C131.1 92.06 131.06 92.32 131.03 92.58L131.01 92.76C130.96 93.09 130.91 93.41 130.84 93.77L130.82 93.84C130.77 94.12 130.71 94.41 130.64 94.69L130.57 94.98C130.52 95.2 130.46 95.43 130.4 95.65L130.3 95.99C130.24 96.2 130.18 96.4 130.11 96.61C130.08 96.72 130.04 96.83 129.99 96.97C129.92 97.17 129.85 97.37 129.78 97.57C129.74 97.69 129.69 97.81 129.64 97.94C129.56 98.14 129.48 98.34 129.4 98.54C129.35 98.66 129.3 98.78 129.25 98.9C129.16 99.1 129.07 99.3 128.98 99.5L128.81 99.86C128.71 100.07 128.61 100.28 128.5 100.49L128.33 100.82L128.31 100.87Z" fill="#D92429"/>
<path d="M296.98 82.27C296.98 89.4 295.75 95.91 293.29 101.81C290.83 107.71 287.41 112.76 283.04 116.96C278.67 121.16 273.47 124.41 267.44 126.7C261.42 128.99 254.88 130.14 247.83 130.14C240.78 130.14 234.27 128.99 228.29 126.7C222.31 124.41 217.13 121.16 212.76 116.96C208.39 112.76 204.97 107.71 202.51 101.81C200.05 95.91 198.82 89.4 198.82 82.27C198.82 75.14 200.05 68.54 202.51 62.73C204.97 56.92 208.38 51.97 212.76 47.9C217.13 43.83 222.31 40.69 228.29 38.48C234.27 36.28 240.78 35.17 247.83 35.17C254.88 35.17 261.41 36.28 267.44 38.48C273.47 40.69 278.67 43.83 283.04 47.9C287.41 51.97 290.82 56.92 293.29 62.73C295.75 68.55 296.98 75.06 296.98 82.27ZM273.68 82.27C273.68 78.37 273.04 74.72 271.77 71.32C270.49 67.93 268.73 65.02 266.48 62.6C264.23 60.18 261.52 58.27 258.33 56.87C255.15 55.47 251.65 54.77 247.83 54.77C244.01 54.77 240.53 55.47 237.39 56.87C234.25 58.27 231.53 60.18 229.24 62.6C226.95 65.02 225.18 67.93 223.95 71.32C222.72 74.72 222.11 78.37 222.11 82.27C222.11 86.17 222.75 90.1 224.02 93.54C225.3 96.98 227.05 99.93 229.31 102.39C231.56 104.85 234.25 106.78 237.39 108.18C240.53 109.58 244.01 110.28 247.83 110.28C251.65 110.28 255.13 109.58 258.27 108.18C261.41 106.78 264.13 104.85 266.42 102.39C268.71 99.93 270.49 96.98 271.77 93.54C273.04 90.1 273.68 86.35 273.68 82.27Z" fill="#222222"/>
<path d="M374 126.13C368.15 128.8 361.4 130.14 353.76 130.14C346.8 130.14 340.37 128.99 334.47 126.7C328.57 124.41 323.46 121.16 319.13 116.96C314.8 112.76 311.4 107.73 308.94 101.87C306.48 96.02 305.25 89.56 305.25 82.52C305.25 75.48 306.5 68.77 309.01 62.91C311.51 57.06 314.97 52.07 319.38 47.95C323.79 43.83 328.97 40.67 334.91 38.46C340.85 36.26 347.26 35.15 354.13 35.15C360.5 35.15 366.76 36.27 372.91 38.52C379.06 40.77 384.05 44.06 387.87 48.39L373.1 63.16C371.06 60.36 368.39 58.28 365.08 56.92C361.77 55.56 358.37 54.88 354.89 54.88C351.07 54.88 347.57 55.58 344.39 56.98C341.21 58.38 338.47 60.31 336.18 62.77C333.89 65.23 332.11 68.14 330.83 71.49C329.56 74.84 328.92 78.51 328.92 82.5C328.92 86.49 329.56 90.31 330.83 93.7C332.11 97.1 333.87 100 336.12 102.42C338.37 104.84 341.06 106.73 344.2 108.09C347.34 109.45 350.78 110.13 354.51 110.13C358.84 110.13 362.61 109.28 365.84 107.58C369.07 105.88 371.65 103.68 373.61 100.96L388.76 115.22C384.77 119.8 379.85 123.43 373.99 126.1L374 126.13Z" fill="#222222"/>
<path d="M459.17 126.13C453.32 128.8 446.57 130.14 438.93 130.14C431.97 130.14 425.54 128.99 419.64 126.7C413.74 124.41 408.63 121.16 404.3 116.96C399.97 112.76 396.57 107.73 394.11 101.87C391.65 96.02 390.42 89.56 390.42 82.52C390.42 75.48 391.67 68.77 394.18 62.91C396.68 57.06 400.14 52.07 404.55 47.95C408.96 43.83 414.14 40.67 420.08 38.46C426.02 36.26 432.43 35.15 439.3 35.15C445.67 35.15 451.93 36.27 458.08 38.52C464.23 40.77 469.22 44.06 473.04 48.39L458.27 63.16C456.23 60.36 453.56 58.28 450.25 56.92C446.94 55.56 443.54 54.88 440.06 54.88C436.24 54.88 432.74 55.58 429.56 56.98C426.38 58.38 423.64 60.31 421.35 62.77C419.06 65.23 417.28 68.14 416 71.49C414.73 74.84 414.09 78.51 414.09 82.5C414.09 86.49 414.73 90.31 416 93.7C417.28 97.1 419.04 100 421.29 102.42C423.54 104.84 426.23 106.73 429.37 108.09C432.51 109.45 435.95 110.13 439.68 110.13C444.01 110.13 447.78 109.28 451.01 107.58C454.24 105.88 456.82 103.68 458.78 100.96L473.93 115.22C469.94 119.8 465.02 123.43 459.16 126.1L459.17 126.13Z" fill="#222222"/>
<path d="M529.57 127.72L510 91.95H502.58V127.72H481.32V37.58H515.69C520.02 37.58 524.24 38.03 528.36 38.92C532.48 39.81 536.17 41.32 539.44 43.44C542.71 45.56 545.32 48.37 547.27 51.84C549.22 55.32 550.2 59.65 550.2 64.82C550.2 70.93 548.54 76.07 545.23 80.23C541.92 84.39 537.34 87.36 531.48 89.14L555.03 127.72H529.57ZM528.68 65.21C528.68 63.09 528.23 61.37 527.34 60.06C526.44 58.74 525.29 57.72 523.88 57C522.47 56.28 520.9 55.79 519.15 55.54C517.4 55.28 515.72 55.16 514.1 55.16H502.46V76.17H512.82C514.61 76.17 516.44 76.02 518.32 75.72C520.2 75.42 521.9 74.89 523.44 74.13C524.98 73.36 526.23 72.26 527.21 70.82C528.19 69.38 528.68 67.51 528.68 65.22V65.21Z" fill="#222222"/>
<path d="M632.19 65.33C632.19 70.6 631.21 75.03 629.26 78.64C627.31 82.25 624.68 85.15 621.37 87.36C618.06 89.57 614.24 91.18 609.91 92.2C605.58 93.22 601.08 93.73 596.41 93.73H585.59V127.72H563.82V37.58H596.92C601.84 37.58 606.45 38.07 610.73 39.04C615.02 40.02 618.75 41.59 621.93 43.75C625.11 45.91 627.61 48.76 629.44 52.28C631.27 55.8 632.18 60.15 632.18 65.33H632.19ZM610.42 65.46C610.42 63.34 609.99 61.6 609.14 60.24C608.29 58.89 607.14 57.82 605.7 57.06C604.26 56.29 602.62 55.78 600.8 55.53C598.97 55.27 597.08 55.15 595.13 55.15H585.58V76.41H594.75C596.78 76.41 598.74 76.24 600.6 75.9C602.47 75.56 604.14 74.97 605.63 74.12C607.11 73.27 608.28 72.15 609.13 70.75C609.98 69.35 610.41 67.59 610.41 65.46H610.42Z" fill="#222222"/>
<path d="M702.8 46.98C702.8 49.43 702.34 51.51 701.41 53.23C700.49 54.95 699.23 56.26 697.64 57.16C696.05 58.07 694.26 58.52 692.28 58.52C690.3 58.52 688.49 58.07 686.9 57.16C685.31 56.25 684.06 54.94 683.14 53.22C682.22 51.5 681.76 49.42 681.76 46.98C681.76 44.54 682.22 42.44 683.14 40.73C684.06 39.01 685.32 37.7 686.9 36.79C688.49 35.89 690.28 35.44 692.28 35.44C694.28 35.44 696.05 35.89 697.64 36.79C699.23 37.7 700.49 39.01 701.41 40.73C702.34 42.45 702.8 44.53 702.8 46.98ZM697.98 46.98C697.98 45.39 697.74 44.05 697.27 42.96C696.8 41.87 696.13 41.04 695.28 40.48C694.42 39.91 693.42 39.63 692.27 39.63C691.12 39.63 690.12 39.91 689.26 40.48C688.4 41.04 687.74 41.87 687.27 42.96C686.8 44.05 686.56 45.39 686.56 46.98C686.56 48.57 686.8 49.91 687.27 50.99C687.74 52.08 688.41 52.91 689.26 53.47C690.11 54.03 691.12 54.32 692.27 54.32C693.42 54.32 694.42 54.04 695.28 53.47C696.14 52.9 696.8 52.08 697.27 50.99C697.74 49.9 697.98 48.56 697.98 46.98Z" fill="#222222"/>
<path d="M706.22 58.22V41.37H710.75V44.31H710.93C711.24 43.26 711.75 42.47 712.48 41.93C713.21 41.39 714.04 41.12 714.98 41.12C715.21 41.12 715.47 41.14 715.74 41.17C716.01 41.2 716.25 41.24 716.45 41.29V45.44C716.23 45.37 715.93 45.31 715.54 45.26C715.15 45.21 714.8 45.18 714.47 45.18C713.78 45.18 713.17 45.33 712.63 45.63C712.09 45.93 711.67 46.34 711.36 46.87C711.05 47.39 710.89 48 710.89 48.69V58.23H706.21L706.22 58.22Z" fill="#222222"/>
<path d="M726.45 64.89C724.94 64.89 723.64 64.68 722.56 64.27C721.48 63.86 720.62 63.29 719.99 62.58C719.35 61.87 718.94 61.07 718.75 60.19L723.07 59.61C723.2 59.95 723.41 60.26 723.7 60.55C723.99 60.84 724.36 61.08 724.84 61.26C725.32 61.44 725.89 61.53 726.57 61.53C727.59 61.53 728.43 61.28 729.09 60.79C729.75 60.3 730.08 59.47 730.08 58.32V55.24H729.88C729.67 55.71 729.37 56.15 728.96 56.57C728.55 56.99 728.02 57.33 727.38 57.59C726.74 57.85 725.97 57.98 725.08 57.98C723.81 57.98 722.66 57.69 721.63 57.1C720.6 56.51 719.77 55.61 719.16 54.39C718.55 53.17 718.24 51.63 718.24 49.77C718.24 47.91 718.55 46.26 719.17 44.98C719.79 43.7 720.62 42.74 721.66 42.11C722.7 41.48 723.83 41.16 725.07 41.16C726.01 41.16 726.81 41.32 727.44 41.64C728.08 41.96 728.59 42.36 728.98 42.82C729.37 43.3 729.67 43.76 729.89 44.21H730.07V41.38H734.71V58.4C734.71 59.83 734.36 61.03 733.66 62C732.96 62.97 731.99 63.69 730.75 64.18C729.51 64.66 728.09 64.91 726.48 64.91L726.45 64.89ZM726.55 54.47C727.3 54.47 727.94 54.28 728.46 53.9C728.98 53.52 729.39 52.98 729.67 52.27C729.95 51.56 730.09 50.72 730.09 49.73C730.09 48.74 729.95 47.88 729.67 47.16C729.39 46.43 728.99 45.87 728.46 45.46C727.93 45.06 727.29 44.86 726.54 44.86C725.79 44.86 725.12 45.07 724.6 45.48C724.07 45.89 723.67 46.47 723.4 47.2C723.13 47.93 722.99 48.78 722.99 49.74C722.99 50.7 723.13 51.55 723.4 52.26C723.67 52.96 724.07 53.51 724.6 53.89C725.12 54.27 725.77 54.47 726.54 54.47H726.55Z" fill="#222222"/>
<path d="M743.22 58.54C742.14 58.54 741.19 58.35 740.35 57.97C739.51 57.59 738.84 57.03 738.36 56.29C737.88 55.55 737.63 54.62 737.63 53.51C737.63 52.57 737.8 51.79 738.15 51.15C738.49 50.51 738.96 50 739.55 49.61C740.14 49.22 740.82 48.93 741.58 48.73C742.34 48.53 743.13 48.39 743.97 48.31C744.95 48.21 745.74 48.11 746.34 48.02C746.94 47.93 747.38 47.79 747.65 47.61C747.92 47.43 748.06 47.16 748.06 46.8V46.74C748.06 46.05 747.84 45.51 747.41 45.13C746.98 44.75 746.36 44.56 745.56 44.56C744.72 44.56 744.05 44.75 743.55 45.12C743.05 45.49 742.72 45.95 742.56 46.51L738.23 46.16C738.45 45.14 738.88 44.25 739.53 43.5C740.18 42.75 741 42.17 742.03 41.77C743.05 41.36 744.23 41.16 745.58 41.16C746.52 41.16 747.41 41.27 748.27 41.49C749.13 41.71 749.89 42.05 750.56 42.51C751.23 42.97 751.76 43.56 752.15 44.28C752.54 45 752.73 45.86 752.73 46.86V58.23H748.3V55.89H748.17C747.9 56.41 747.54 56.88 747.08 57.28C746.63 57.68 746.08 57.99 745.44 58.21C744.8 58.44 744.07 58.55 743.23 58.55L743.22 58.54ZM744.56 55.31C745.25 55.31 745.86 55.17 746.38 54.9C746.91 54.63 747.32 54.26 747.62 53.79C747.92 53.32 748.07 52.79 748.07 52.2V50.41C747.92 50.5 747.72 50.59 747.47 50.67C747.22 50.75 746.93 50.81 746.62 50.88C746.31 50.95 745.99 51 745.68 51.04C745.37 51.09 745.08 51.13 744.82 51.17C744.27 51.25 743.79 51.38 743.38 51.55C742.97 51.72 742.65 51.96 742.43 52.26C742.2 52.55 742.09 52.92 742.09 53.36C742.09 53.99 742.32 54.48 742.79 54.81C743.25 55.15 743.84 55.31 744.56 55.31Z" fill="#222222"/>
<path d="M761.03 48.47V58.21H756.35V41.36H760.81V44.33H761.01C761.38 43.35 762.01 42.57 762.89 42C763.77 41.43 764.83 41.14 766.08 41.14C767.25 41.14 768.27 41.4 769.14 41.91C770.01 42.42 770.69 43.15 771.17 44.1C771.65 45.05 771.89 46.17 771.89 47.49V58.22H767.21V48.32C767.21 47.29 766.95 46.48 766.42 45.9C765.89 45.32 765.15 45.03 764.22 45.03C763.59 45.03 763.04 45.17 762.56 45.44C762.08 45.71 761.71 46.1 761.44 46.62C761.17 47.14 761.03 47.76 761.03 48.48V48.47Z" fill="#222222"/>
<path d="M777.91 39.19C777.22 39.19 776.62 38.96 776.13 38.5C775.64 38.04 775.39 37.49 775.39 36.83C775.39 36.17 775.64 35.62 776.14 35.16C776.64 34.7 777.23 34.46 777.92 34.46C778.61 34.46 779.21 34.69 779.7 35.15C780.19 35.61 780.44 36.16 780.44 36.82C780.44 37.48 780.19 38.03 779.7 38.49C779.21 38.95 778.61 39.18 777.92 39.18L777.91 39.19ZM775.57 58.22V41.37H780.25V58.22H775.57Z" fill="#222222"/>
<path d="M783.89 58.22V55.44L792.14 45.22V45.1H784.17V41.37H797.77V44.41L790.02 54.38V54.5H798.05V58.23H783.88L783.89 58.22Z" fill="#222222"/>
<path d="M809.32 58.55C807.59 58.55 806.09 58.2 804.85 57.49C803.61 56.78 802.64 55.78 801.97 54.48C801.3 53.18 800.96 51.64 800.96 49.86C800.96 48.08 801.3 46.61 801.97 45.3C802.64 43.99 803.59 42.97 804.82 42.24C806.05 41.51 807.49 41.14 809.14 41.14C810.25 41.14 811.29 41.32 812.25 41.67C813.21 42.02 814.05 42.56 814.78 43.27C815.5 43.98 816.06 44.87 816.46 45.94C816.86 47.02 817.06 48.27 817.06 49.7V50.99H802.82V48.09H812.65C812.65 47.41 812.5 46.82 812.21 46.3C811.92 45.78 811.51 45.38 811 45.08C810.48 44.78 809.89 44.63 809.21 44.63C808.53 44.63 807.87 44.79 807.33 45.12C806.78 45.45 806.36 45.88 806.05 46.43C805.74 46.98 805.59 47.58 805.58 48.25V51C805.58 51.84 805.73 52.55 806.05 53.17C806.36 53.77 806.8 54.24 807.37 54.57C807.94 54.9 808.62 55.06 809.4 55.06C809.92 55.06 810.39 54.99 810.83 54.84C811.26 54.7 811.63 54.48 811.94 54.18C812.25 53.89 812.48 53.53 812.64 53.1L816.96 53.38C816.74 54.42 816.29 55.33 815.62 56.1C814.94 56.87 814.07 57.47 813.01 57.9C811.94 58.33 810.72 58.54 809.33 58.54L809.32 58.55Z" fill="#222222"/>
<path d="M826.32 58.49C825.04 58.49 823.88 58.16 822.85 57.5C821.82 56.84 820.99 55.86 820.39 54.57C819.79 53.28 819.48 51.69 819.48 49.81C819.48 47.93 819.79 46.27 820.41 44.99C821.03 43.7 821.86 42.74 822.9 42.1C823.94 41.46 825.07 41.14 826.31 41.14C827.25 41.14 828.04 41.3 828.68 41.62C829.31 41.94 829.82 42.34 830.22 42.8C830.61 43.28 830.91 43.74 831.11 44.19H831.25V35.74H835.91V58.22H831.3V55.52H831.1C830.88 55.99 830.57 56.45 830.17 56.91C829.77 57.37 829.26 57.74 828.62 58.05C827.99 58.35 827.22 58.5 826.31 58.5L826.32 58.49ZM827.8 54.77C828.55 54.77 829.19 54.56 829.71 54.15C830.23 53.74 830.64 53.16 830.92 52.41C831.2 51.66 831.34 50.79 831.34 49.78C831.34 48.77 831.2 47.91 830.92 47.17C830.64 46.43 830.24 45.86 829.71 45.46C829.18 45.06 828.54 44.86 827.79 44.86C827.04 44.86 826.37 45.07 825.85 45.49C825.33 45.91 824.92 46.49 824.65 47.23C824.38 47.97 824.24 48.82 824.24 49.8C824.24 50.78 824.38 51.65 824.65 52.4C824.92 53.15 825.32 53.74 825.85 54.16C826.37 54.58 827.02 54.79 827.79 54.79L827.8 54.77Z" fill="#222222"/>
<path d="M866.82 43.61H862.01C861.92 42.99 861.74 42.44 861.47 41.95C861.2 41.46 860.85 41.05 860.43 40.71C860.01 40.36 859.52 40.1 858.96 39.92C858.4 39.74 857.81 39.65 857.17 39.65C856.01 39.65 854.99 39.94 854.13 40.51C853.27 41.08 852.6 41.92 852.12 43.01C851.64 44.1 851.41 45.43 851.41 46.99C851.41 48.55 851.65 49.94 852.13 51.03C852.61 52.12 853.28 52.95 854.14 53.5C855 54.06 856 54.34 857.14 54.34C857.78 54.34 858.37 54.26 858.91 54.09C859.45 53.92 859.94 53.68 860.36 53.35C860.78 53.03 861.14 52.63 861.42 52.16C861.7 51.69 861.9 51.16 862.01 50.56L866.82 50.58C866.7 51.61 866.39 52.6 865.89 53.56C865.4 54.51 864.74 55.37 863.9 56.12C863.07 56.87 862.08 57.46 860.94 57.9C859.8 58.34 858.5 58.55 857.06 58.55C855.05 58.55 853.26 58.1 851.69 57.19C850.11 56.28 848.87 54.97 847.96 53.25C847.05 51.53 846.59 49.45 846.59 47.01C846.59 44.57 847.05 42.47 847.97 40.76C848.89 39.04 850.14 37.73 851.72 36.82C853.3 35.92 855.08 35.47 857.05 35.47C858.35 35.47 859.56 35.65 860.68 36.02C861.79 36.39 862.78 36.92 863.65 37.62C864.51 38.32 865.22 39.17 865.76 40.18C866.31 41.19 866.66 42.35 866.81 43.65L866.82 43.61Z" fill="#222222"/>
<path d="M870.15 58.22V41.37H874.68V44.31H874.86C875.17 43.26 875.68 42.47 876.41 41.93C877.14 41.39 877.97 41.12 878.91 41.12C879.14 41.12 879.4 41.14 879.67 41.17C879.94 41.2 880.18 41.24 880.38 41.29V45.44C880.16 45.37 879.86 45.31 879.47 45.26C879.08 45.21 878.73 45.18 878.4 45.18C877.71 45.18 877.1 45.33 876.56 45.63C876.02 45.93 875.6 46.34 875.29 46.87C874.98 47.39 874.82 48 874.82 48.69V58.23H870.14L870.15 58.22Z" fill="#222222"/>
<path d="M885.13 39.19C884.44 39.19 883.84 38.96 883.35 38.5C882.86 38.04 882.61 37.49 882.61 36.83C882.61 36.17 882.86 35.62 883.36 35.16C883.86 34.7 884.45 34.46 885.14 34.46C885.83 34.46 886.43 34.69 886.92 35.15C887.41 35.61 887.66 36.16 887.66 36.82C887.66 37.48 887.41 38.03 886.92 38.49C886.43 38.95 885.83 39.18 885.14 39.18L885.13 39.19ZM882.78 58.22V41.37H887.46V58.22H882.78Z" fill="#222222"/>
<path d="M891.19 58.22V41.37H895.65V44.34H895.85C896.2 43.35 896.79 42.57 897.61 42C898.43 41.43 899.41 41.14 900.55 41.14C901.69 41.14 902.69 41.43 903.5 42C904.31 42.57 904.85 43.35 905.12 44.33H905.3C905.65 43.36 906.27 42.59 907.17 42.01C908.07 41.43 909.14 41.14 910.38 41.14C911.95 41.14 913.23 41.64 914.22 42.64C915.2 43.64 915.69 45.05 915.69 46.88V58.21H911.03V47.8C911.03 46.86 910.78 46.16 910.28 45.69C909.78 45.22 909.16 44.99 908.41 44.99C907.56 44.99 906.9 45.26 906.42 45.8C905.94 46.34 905.71 47.04 905.71 47.92V58.21H901.18V47.7C901.18 46.87 900.94 46.21 900.47 45.72C900 45.23 899.38 44.98 898.61 44.98C898.09 44.98 897.62 45.11 897.21 45.37C896.8 45.63 896.47 45.99 896.23 46.46C895.99 46.93 895.87 47.47 895.87 48.09V58.21H891.19V58.22Z" fill="#222222"/>
<path d="M927.05 58.55C925.32 58.55 923.82 58.2 922.58 57.49C921.34 56.78 920.37 55.78 919.7 54.48C919.03 53.18 918.69 51.64 918.69 49.86C918.69 48.08 919.03 46.61 919.7 45.3C920.37 43.99 921.32 42.97 922.55 42.24C923.78 41.51 925.22 41.14 926.87 41.14C927.98 41.14 929.02 41.32 929.98 41.67C930.94 42.02 931.78 42.56 932.51 43.27C933.23 43.98 933.79 44.87 934.19 45.94C934.59 47.02 934.79 48.27 934.79 49.7V50.99H920.55V48.09H930.38C930.38 47.41 930.23 46.82 929.94 46.3C929.65 45.78 929.24 45.38 928.73 45.08C928.21 44.78 927.62 44.63 926.94 44.63C926.26 44.63 925.6 44.79 925.06 45.12C924.51 45.45 924.09 45.88 923.78 46.43C923.47 46.98 923.32 47.58 923.31 48.25V51C923.31 51.84 923.46 52.55 923.78 53.17C924.09 53.77 924.53 54.24 925.1 54.57C925.67 54.9 926.35 55.06 927.13 55.06C927.65 55.06 928.12 54.99 928.56 54.84C928.99 54.7 929.36 54.48 929.67 54.18C929.98 53.89 930.21 53.53 930.37 53.1L934.69 53.38C934.47 54.42 934.02 55.33 933.35 56.1C932.67 56.87 931.8 57.47 930.74 57.9C929.67 58.33 928.45 58.54 927.06 58.54L927.05 58.55Z" fill="#222222"/>
<path d="M686.86 93.3C685.78 93.3 684.83 93.11 683.99 92.73C683.15 92.35 682.48 91.79 682 91.05C681.52 90.31 681.27 89.38 681.27 88.27C681.27 87.33 681.44 86.55 681.79 85.91C682.13 85.27 682.6 84.76 683.19 84.37C683.78 83.98 684.46 83.69 685.22 83.49C685.98 83.29 686.77 83.15 687.61 83.07C688.59 82.97 689.38 82.87 689.98 82.78C690.58 82.69 691.02 82.55 691.29 82.37C691.56 82.19 691.7 81.92 691.7 81.56V81.5C691.7 80.81 691.48 80.27 691.05 79.89C690.62 79.51 690 79.32 689.2 79.32C688.36 79.32 687.69 79.51 687.19 79.88C686.69 80.25 686.36 80.71 686.2 81.27L681.87 80.92C682.09 79.9 682.52 79.01 683.17 78.26C683.82 77.51 684.64 76.93 685.67 76.53C686.69 76.12 687.87 75.92 689.22 75.92C690.16 75.92 691.05 76.03 691.91 76.25C692.77 76.47 693.53 76.81 694.2 77.27C694.87 77.73 695.4 78.32 695.79 79.04C696.18 79.76 696.37 80.62 696.37 81.62V92.99H691.94V90.65H691.81C691.54 91.17 691.18 91.64 690.72 92.04C690.27 92.44 689.72 92.75 689.08 92.97C688.44 93.2 687.71 93.31 686.87 93.31L686.86 93.3ZM688.2 90.08C688.89 90.08 689.5 89.94 690.02 89.67C690.55 89.4 690.96 89.03 691.26 88.56C691.56 88.09 691.71 87.56 691.71 86.97V85.18C691.56 85.27 691.36 85.36 691.11 85.44C690.86 85.52 690.57 85.58 690.26 85.65C689.95 85.72 689.63 85.77 689.32 85.81C689.01 85.86 688.72 85.9 688.46 85.94C687.91 86.02 687.43 86.15 687.02 86.32C686.61 86.49 686.29 86.73 686.07 87.03C685.84 87.32 685.73 87.69 685.73 88.13C685.73 88.76 685.96 89.25 686.43 89.58C686.89 89.92 687.48 90.08 688.2 90.08Z" fill="#222222"/>
<path d="M704.66 83.24V92.98H699.98V76.13H704.44V79.1H704.64C705.01 78.12 705.64 77.34 706.52 76.77C707.4 76.2 708.46 75.91 709.71 75.91C710.88 75.91 711.9 76.17 712.77 76.68C713.64 77.19 714.32 77.92 714.8 78.87C715.28 79.82 715.52 80.94 715.52 82.26V92.99H710.84V83.09C710.84 82.06 710.58 81.25 710.05 80.67C709.52 80.09 708.78 79.8 707.85 79.8C707.22 79.8 706.67 79.94 706.19 80.21C705.71 80.48 705.34 80.87 705.07 81.39C704.8 81.91 704.66 82.53 704.66 83.25V83.24Z" fill="#222222"/>
<path d="M725.41 93.26C724.13 93.26 722.97 92.93 721.94 92.27C720.91 91.61 720.08 90.63 719.48 89.34C718.88 88.05 718.57 86.46 718.57 84.58C718.57 82.7 718.88 81.04 719.5 79.76C720.12 78.47 720.95 77.51 721.99 76.87C723.03 76.23 724.16 75.91 725.4 75.91C726.34 75.91 727.13 76.07 727.77 76.39C728.4 76.71 728.91 77.11 729.31 77.57C729.7 78.05 730 78.51 730.2 78.96H730.34V70.51H735V92.99H730.39V90.29H730.19C729.97 90.76 729.66 91.22 729.26 91.68C728.86 92.14 728.35 92.51 727.71 92.82C727.08 93.12 726.31 93.27 725.4 93.27L725.41 93.26ZM726.9 89.54C727.65 89.54 728.29 89.33 728.81 88.92C729.33 88.51 729.74 87.93 730.02 87.18C730.3 86.43 730.44 85.56 730.44 84.55C730.44 83.54 730.3 82.68 730.02 81.94C729.74 81.2 729.34 80.63 728.81 80.23C728.28 79.83 727.64 79.63 726.89 79.63C726.14 79.63 725.47 79.84 724.95 80.26C724.43 80.68 724.02 81.26 723.75 82C723.48 82.74 723.34 83.59 723.34 84.57C723.34 85.55 723.48 86.42 723.75 87.17C724.02 87.92 724.42 88.51 724.95 88.93C725.47 89.35 726.12 89.56 726.89 89.56L726.9 89.54Z" fill="#222222"/>
<path d="M765.92 78.37H761.11C761.02 77.75 760.84 77.2 760.57 76.71C760.3 76.22 759.95 75.81 759.53 75.47C759.11 75.12 758.62 74.86 758.06 74.68C757.5 74.5 756.91 74.41 756.27 74.41C755.11 74.41 754.09 74.7 753.23 75.27C752.37 75.84 751.7 76.68 751.22 77.77C750.74 78.86 750.51 80.19 750.51 81.75C750.51 83.31 750.75 84.7 751.23 85.79C751.71 86.88 752.38 87.71 753.24 88.26C754.1 88.82 755.1 89.1 756.24 89.1C756.88 89.1 757.47 89.02 758.01 88.85C758.55 88.68 759.04 88.44 759.46 88.11C759.88 87.79 760.24 87.39 760.52 86.92C760.8 86.45 761 85.92 761.11 85.32L765.92 85.34C765.8 86.37 765.49 87.36 764.99 88.32C764.5 89.27 763.84 90.13 763 90.88C762.17 91.63 761.18 92.22 760.04 92.66C758.9 93.1 757.6 93.31 756.16 93.31C754.15 93.31 752.36 92.86 750.79 91.95C749.21 91.04 747.97 89.73 747.06 88.01C746.15 86.29 745.69 84.21 745.69 81.77C745.69 79.33 746.15 77.23 747.07 75.52C747.99 73.8 749.24 72.49 750.82 71.58C752.4 70.68 754.18 70.23 756.15 70.23C757.45 70.23 758.66 70.41 759.78 70.78C760.89 71.15 761.88 71.68 762.75 72.38C763.61 73.08 764.32 73.93 764.86 74.94C765.41 75.95 765.76 77.11 765.91 78.41L765.92 78.37Z" fill="#222222"/>
<path d="M776.86 93.31C775.15 93.31 773.68 92.95 772.44 92.22C771.2 91.5 770.24 90.48 769.57 89.17C768.9 87.86 768.56 86.35 768.56 84.62C768.56 82.89 768.9 81.35 769.57 80.05C770.24 78.74 771.2 77.73 772.44 77C773.68 76.27 775.15 75.91 776.86 75.91C778.57 75.91 780.04 76.27 781.28 77C782.52 77.72 783.48 78.74 784.15 80.05C784.82 81.36 785.16 82.88 785.16 84.62C785.16 86.36 784.82 87.86 784.15 89.17C783.48 90.48 782.52 91.49 781.28 92.22C780.04 92.95 778.57 93.31 776.86 93.31ZM776.88 89.69C777.66 89.69 778.3 89.47 778.82 89.03C779.34 88.58 779.73 87.98 780 87.21C780.27 86.44 780.4 85.57 780.4 84.59C780.4 83.61 780.27 82.74 780 81.97C779.73 81.2 779.34 80.59 778.82 80.15C778.3 79.7 777.65 79.48 776.88 79.48C776.11 79.48 775.44 79.7 774.91 80.15C774.38 80.6 773.98 81.2 773.71 81.97C773.44 82.74 773.31 83.61 773.31 84.59C773.31 85.57 773.44 86.44 773.71 87.21C773.98 87.98 774.38 88.58 774.91 89.03C775.44 89.47 776.1 89.69 776.88 89.69Z" fill="#222222"/>
<path d="M788.21 92.98V76.13H792.74V79.07H792.92C793.23 78.02 793.74 77.23 794.47 76.69C795.2 76.15 796.03 75.88 796.97 75.88C797.2 75.88 797.46 75.9 797.73 75.93C798 75.96 798.24 76 798.44 76.05V80.2C798.22 80.13 797.92 80.07 797.53 80.02C797.14 79.97 796.79 79.94 796.46 79.94C795.77 79.94 795.16 80.09 794.62 80.39C794.08 80.69 793.66 81.1 793.35 81.63C793.04 82.15 792.88 82.76 792.88 83.45V92.99H788.2L788.21 92.98Z" fill="#222222"/>
<path d="M800.84 92.98V76.13H805.37V79.07H805.55C805.86 78.02 806.37 77.23 807.1 76.69C807.83 76.15 808.66 75.88 809.6 75.88C809.83 75.88 810.09 75.9 810.36 75.93C810.63 75.96 810.87 76 811.07 76.05V80.2C810.85 80.13 810.55 80.07 810.16 80.02C809.77 79.97 809.42 79.94 809.09 79.94C808.4 79.94 807.79 80.09 807.25 80.39C806.71 80.69 806.29 81.1 805.98 81.63C805.67 82.15 805.51 82.76 805.51 83.45V92.99H800.83L800.84 92.98Z" fill="#222222"/>
<path d="M824.28 85.81V76.13H828.96V92.98H824.47V89.92H824.29C823.91 90.9 823.28 91.7 822.4 92.3C821.52 92.9 820.45 93.2 819.18 93.2C818.05 93.2 817.06 92.95 816.21 92.43C815.35 91.92 814.69 91.19 814.21 90.25C813.73 89.31 813.49 88.18 813.48 86.86V76.13H818.16V86.03C818.16 87.03 818.43 87.81 818.96 88.39C819.49 88.97 820.19 89.26 821.08 89.26C821.64 89.26 822.17 89.13 822.66 88.87C823.15 88.61 823.55 88.22 823.85 87.71C824.15 87.2 824.3 86.57 824.3 85.81H824.28Z" fill="#222222"/>
<path d="M832.68 99.3V76.12H837.29V78.95H837.5C837.71 78.5 838 78.04 838.39 77.56C838.78 77.09 839.29 76.7 839.93 76.38C840.56 76.06 841.35 75.9 842.3 75.9C843.53 75.9 844.66 76.22 845.7 76.86C846.74 77.5 847.57 78.46 848.19 79.75C848.81 81.03 849.12 82.64 849.12 84.57C849.12 86.5 848.82 88.04 848.21 89.33C847.61 90.62 846.79 91.6 845.75 92.26C844.72 92.92 843.56 93.25 842.28 93.25C841.37 93.25 840.6 93.1 839.97 92.8C839.34 92.5 838.82 92.12 838.42 91.66C838.02 91.2 837.71 90.74 837.5 90.27H837.36V99.29H832.68V99.3ZM837.26 84.55C837.26 85.55 837.4 86.43 837.68 87.18C837.96 87.93 838.36 88.5 838.89 88.92C839.42 89.33 840.06 89.54 840.81 89.54C841.56 89.54 842.21 89.33 842.74 88.91C843.27 88.49 843.67 87.9 843.94 87.15C844.21 86.4 844.35 85.54 844.35 84.55C844.35 83.56 844.21 82.72 843.94 81.98C843.67 81.24 843.27 80.66 842.74 80.24C842.21 79.83 841.57 79.61 840.8 79.61C840.03 79.61 839.4 79.81 838.87 80.21C838.35 80.61 837.95 81.18 837.67 81.92C837.39 82.66 837.25 83.53 837.25 84.53L837.26 84.55Z" fill="#222222"/>
<path d="M861.2 76.13V79.64H851.05V76.13H861.2ZM853.35 72.09H858.02V87.81C858.02 88.24 858.09 88.57 858.22 88.81C858.35 89.04 858.54 89.21 858.77 89.31C859 89.41 859.28 89.45 859.6 89.45C859.82 89.45 860.04 89.43 860.26 89.39C860.48 89.35 860.65 89.32 860.77 89.3L861.5 92.78C861.27 92.85 860.94 92.94 860.51 93.04C860.08 93.14 859.57 93.2 858.96 93.22C857.83 93.26 856.85 93.11 856 92.77C855.15 92.43 854.5 91.89 854.03 91.17C853.56 90.45 853.33 89.53 853.34 88.42V72.09H853.35Z" fill="#222222"/>
<path d="M866.58 73.95C865.89 73.95 865.29 73.72 864.8 73.26C864.31 72.8 864.06 72.25 864.06 71.59C864.06 70.93 864.31 70.38 864.81 69.92C865.31 69.46 865.9 69.22 866.59 69.22C867.28 69.22 867.88 69.45 868.37 69.91C868.86 70.37 869.11 70.92 869.11 71.58C869.11 72.24 868.86 72.79 868.37 73.25C867.88 73.71 867.28 73.94 866.59 73.94L866.58 73.95ZM864.23 92.98V76.13H868.91V92.98H864.23Z" fill="#222222"/>
<path d="M880.26 93.31C878.55 93.31 877.08 92.95 875.84 92.22C874.6 91.5 873.64 90.48 872.97 89.17C872.3 87.86 871.96 86.35 871.96 84.62C871.96 82.89 872.3 81.35 872.97 80.05C873.64 78.74 874.6 77.73 875.84 77C877.08 76.27 878.55 75.91 880.26 75.91C881.97 75.91 883.44 76.27 884.68 77C885.92 77.72 886.88 78.74 887.55 80.05C888.22 81.36 888.56 82.88 888.56 84.62C888.56 86.36 888.22 87.86 887.55 89.17C886.88 90.48 885.92 91.49 884.68 92.22C883.44 92.95 881.97 93.31 880.26 93.31ZM880.28 89.69C881.06 89.69 881.7 89.47 882.22 89.03C882.74 88.58 883.13 87.98 883.4 87.21C883.67 86.44 883.8 85.57 883.8 84.59C883.8 83.61 883.67 82.74 883.4 81.97C883.13 81.2 882.74 80.59 882.22 80.15C881.7 79.7 881.05 79.48 880.28 79.48C879.51 79.48 878.84 79.7 878.31 80.15C877.78 80.6 877.38 81.2 877.11 81.97C876.84 82.74 876.71 83.61 876.71 84.59C876.71 85.57 876.84 86.44 877.11 87.21C877.38 87.98 877.78 88.58 878.31 89.03C878.84 89.47 879.5 89.69 880.28 89.69Z" fill="#222222"/>
<path d="M896.28 83.24V92.98H891.6V76.13H896.06V79.1H896.26C896.63 78.12 897.26 77.34 898.14 76.77C899.02 76.2 900.08 75.91 901.33 75.91C902.5 75.91 903.52 76.17 904.39 76.68C905.26 77.19 905.94 77.92 906.42 78.87C906.9 79.82 907.14 80.94 907.14 82.26V92.99H902.46V83.09C902.46 82.06 902.2 81.25 901.67 80.67C901.14 80.09 900.4 79.8 899.47 79.8C898.84 79.8 898.29 79.94 897.81 80.21C897.33 80.48 896.96 80.87 896.69 81.39C896.42 81.91 896.28 82.53 896.28 83.25V83.24Z" fill="#222222"/>
<path d="M682.91 127.75V105.27H690.5C692.26 105.27 693.7 105.57 694.82 106.17C695.95 106.77 696.78 107.58 697.32 108.62C697.86 109.66 698.13 110.84 698.13 112.17C698.13 113.5 697.86 114.67 697.32 115.69C696.78 116.71 695.95 117.52 694.83 118.1C693.71 118.68 692.28 118.97 690.54 118.97H684.39V116.51H690.45C691.65 116.51 692.62 116.33 693.35 115.98C694.08 115.63 694.62 115.13 694.95 114.48C695.28 113.83 695.45 113.06 695.45 112.16C695.45 111.26 695.28 110.47 694.94 109.8C694.6 109.13 694.07 108.61 693.33 108.24C692.59 107.87 691.61 107.68 690.4 107.68H685.61V127.74H682.89L682.91 127.75ZM693.49 117.65L699.02 127.74H695.86L690.42 117.65H693.49Z" fill="#222222"/>
<path d="M709.38 128.1C707.76 128.1 706.36 127.74 705.18 127.02C704.01 126.3 703.1 125.29 702.47 123.99C701.84 122.69 701.52 121.18 701.52 119.45C701.52 117.72 701.84 116.2 702.47 114.88C703.1 113.56 703.99 112.53 705.13 111.78C706.27 111.03 707.6 110.67 709.12 110.67C710 110.67 710.86 110.82 711.72 111.11C712.58 111.4 713.36 111.88 714.06 112.53C714.76 113.18 715.32 114.05 715.74 115.13C716.16 116.21 716.37 117.53 716.37 119.1V120.2H703.38V117.96H713.74C713.74 117.01 713.55 116.16 713.17 115.41C712.79 114.67 712.26 114.08 711.57 113.64C710.88 113.21 710.06 112.99 709.13 112.99C708.1 112.99 707.21 113.25 706.46 113.76C705.71 114.27 705.13 114.93 704.73 115.74C704.33 116.55 704.13 117.42 704.13 118.35V119.84C704.13 121.12 704.35 122.19 704.79 123.07C705.23 123.95 705.85 124.62 706.64 125.08C707.43 125.54 708.35 125.77 709.4 125.77C710.08 125.77 710.7 125.67 711.25 125.48C711.8 125.28 712.28 124.99 712.68 124.6C713.08 124.21 713.39 123.72 713.61 123.13L716.11 123.84C715.85 124.69 715.4 125.43 714.78 126.07C714.16 126.71 713.39 127.21 712.48 127.56C711.57 127.91 710.54 128.1 709.4 128.1H709.38Z" fill="#222222"/>
<path d="M720.31 134.07V110.89H722.81V113.57H723.12C723.31 113.28 723.58 112.9 723.92 112.45C724.26 111.99 724.75 111.58 725.39 111.22C726.03 110.86 726.9 110.68 727.99 110.68C729.41 110.68 730.66 111.03 731.74 111.74C732.82 112.45 733.67 113.46 734.28 114.76C734.89 116.07 735.19 117.6 735.19 119.37C735.19 121.14 734.89 122.7 734.28 124.01C733.67 125.32 732.83 126.33 731.76 127.04C730.69 127.75 729.44 128.11 728.04 128.11C726.96 128.11 726.09 127.93 725.44 127.57C724.79 127.21 724.29 126.79 723.94 126.33C723.59 125.87 723.32 125.48 723.13 125.17H722.91V134.08H720.32L720.31 134.07ZM722.86 119.32C722.86 120.6 723.04 121.72 723.42 122.68C723.8 123.64 724.34 124.41 725.06 124.95C725.78 125.49 726.66 125.77 727.7 125.77C728.74 125.77 729.69 125.48 730.42 124.91C731.15 124.34 731.7 123.56 732.06 122.59C732.43 121.61 732.61 120.52 732.61 119.32C732.61 118.12 732.43 117.06 732.07 116.11C731.71 115.15 731.16 114.4 730.43 113.84C729.7 113.28 728.79 113 727.69 113C726.59 113 725.75 113.27 725.03 113.8C724.31 114.33 723.77 115.07 723.4 116.01C723.03 116.95 722.85 118.06 722.85 119.32H722.86Z" fill="#222222"/>
<path d="M745.99 128.1C744.47 128.1 743.14 127.74 741.99 127.01C740.84 126.29 739.95 125.27 739.31 123.97C738.67 122.66 738.35 121.14 738.35 119.41C738.35 117.68 738.67 116.12 739.31 114.81C739.95 113.5 740.84 112.49 741.99 111.76C743.13 111.04 744.47 110.67 745.99 110.67C747.51 110.67 748.85 111.03 749.99 111.76C751.13 112.49 752.03 113.5 752.67 114.81C753.31 116.12 753.63 117.65 753.63 119.41C753.63 121.17 753.31 122.67 752.67 123.97C752.03 125.27 751.14 126.29 749.99 127.01C748.84 127.73 747.51 128.1 745.99 128.1ZM745.99 125.77C747.15 125.77 748.1 125.47 748.84 124.88C749.58 124.29 750.14 123.51 750.5 122.54C750.86 121.57 751.04 120.53 751.04 119.4C751.04 118.27 750.86 117.22 750.5 116.25C750.14 115.28 749.59 114.49 748.84 113.89C748.09 113.29 747.14 112.99 745.99 112.99C744.84 112.99 743.88 113.29 743.14 113.89C742.39 114.49 741.84 115.28 741.48 116.25C741.12 117.22 740.94 118.28 740.94 119.4C740.94 120.52 741.12 121.57 741.48 122.54C741.84 123.51 742.39 124.28 743.14 124.88C743.89 125.47 744.84 125.77 745.99 125.77Z" fill="#222222"/>
<path d="M757.58 127.75V110.9H760.08V113.45H760.26C760.57 112.62 761.12 111.94 761.93 111.42C762.73 110.9 763.64 110.64 764.65 110.64C764.84 110.64 765.08 110.64 765.36 110.65C765.64 110.65 765.86 110.67 766.01 110.68V113.31C765.92 113.29 765.72 113.25 765.41 113.2C765.1 113.15 764.77 113.13 764.43 113.13C763.61 113.13 762.88 113.3 762.24 113.64C761.6 113.98 761.09 114.45 760.73 115.04C760.36 115.64 760.18 116.32 760.18 117.08V127.74H757.59L757.58 127.75Z" fill="#222222"/>
<path d="M776.41 110.89V113.09H767.68V110.89H776.41ZM770.22 106.86H772.81V122.92C772.81 123.65 772.92 124.2 773.13 124.56C773.35 124.92 773.62 125.16 773.96 125.28C774.3 125.4 774.66 125.46 775.04 125.46C775.32 125.46 775.56 125.44 775.74 125.41C775.92 125.38 776.07 125.35 776.18 125.33L776.71 127.66C776.53 127.72 776.29 127.79 775.97 127.86C775.66 127.93 775.26 127.96 774.77 127.96C774.04 127.96 773.32 127.81 772.63 127.49C771.93 127.17 771.35 126.69 770.89 126.05C770.43 125.41 770.21 124.59 770.21 123.61V106.85L770.22 106.86Z" fill="#222222"/>
<path d="M781.63 108.09C781.12 108.09 780.69 107.92 780.33 107.57C779.97 107.23 779.79 106.82 779.79 106.33C779.79 105.84 779.97 105.43 780.33 105.09C780.69 104.75 781.13 104.57 781.63 104.57C782.13 104.57 782.57 104.74 782.93 105.09C783.29 105.44 783.47 105.85 783.47 106.33C783.47 106.81 783.29 107.23 782.93 107.57C782.57 107.92 782.14 108.09 781.63 108.09ZM780.32 127.75V110.9H782.91V127.75H780.32Z" fill="#222222"/>
<path d="M790.24 117.61V127.75H787.65V110.9H790.15V113.53H790.37C790.76 112.68 791.36 111.98 792.17 111.46C792.97 110.94 794.01 110.68 795.29 110.68C796.43 110.68 797.43 110.91 798.29 111.37C799.14 111.84 799.81 112.54 800.29 113.48C800.77 114.42 801 115.61 801 117.04V127.75H798.41V117.22C798.41 115.9 798.06 114.86 797.38 114.12C796.69 113.38 795.75 113 794.55 113C793.72 113 792.98 113.18 792.34 113.54C791.7 113.9 791.18 114.42 790.81 115.11C790.44 115.8 790.25 116.63 790.25 117.61H790.24Z" fill="#222222"/>
<path d="M812.54 134.42C811.29 134.42 810.21 134.26 809.31 133.94C808.41 133.62 807.66 133.21 807.07 132.69C806.47 132.17 806 131.62 805.65 131.04L807.71 129.59C807.94 129.9 808.24 130.25 808.6 130.65C808.96 131.05 809.45 131.4 810.08 131.69C810.7 131.99 811.53 132.14 812.54 132.14C813.9 132.14 815.02 131.81 815.91 131.15C816.79 130.49 817.24 129.46 817.24 128.06V124.63H817.02C816.83 124.94 816.56 125.32 816.21 125.77C815.86 126.22 815.36 126.62 814.72 126.96C814.08 127.3 813.2 127.48 812.1 127.48C810.74 127.48 809.52 127.16 808.44 126.51C807.36 125.87 806.51 124.93 805.88 123.7C805.26 122.47 804.94 120.98 804.94 119.22C804.94 117.46 805.24 115.99 805.85 114.7C806.46 113.41 807.3 112.42 808.39 111.71C809.47 111.01 810.72 110.65 812.14 110.65C813.24 110.65 814.11 110.83 814.76 111.19C815.41 111.55 815.9 111.96 816.25 112.42C816.6 112.88 816.87 113.25 817.06 113.54H817.32V110.86H819.82V128.2C819.82 129.65 819.49 130.83 818.84 131.74C818.18 132.65 817.31 133.32 816.2 133.75C815.09 134.18 813.88 134.39 812.53 134.39L812.54 134.42ZM812.45 125.16C813.49 125.16 814.37 124.92 815.09 124.45C815.81 123.98 816.35 123.29 816.73 122.4C817.11 121.51 817.29 120.44 817.29 119.2C817.29 117.96 817.11 116.91 816.74 115.98C816.37 115.05 815.83 114.32 815.11 113.8C814.39 113.27 813.51 113.01 812.45 113.01C811.39 113.01 810.44 113.29 809.71 113.85C808.98 114.4 808.44 115.15 808.07 116.09C807.71 117.03 807.53 118.07 807.53 119.21C807.53 120.35 807.71 121.41 808.08 122.31C808.45 123.21 809 123.91 809.72 124.42C810.45 124.93 811.35 125.18 812.44 125.18L812.45 125.16Z" fill="#222222"/>
<path d="M833.61 127.75V105.27H841.2C842.96 105.27 844.41 105.59 845.53 106.22C846.65 106.85 847.49 107.71 848.03 108.79C848.57 109.86 848.84 111.06 848.84 112.39C848.84 113.72 848.57 114.92 848.03 116C847.49 117.08 846.66 117.94 845.54 118.58C844.42 119.22 842.99 119.54 841.24 119.54H835.8V117.13H841.15C842.36 117.13 843.33 116.92 844.06 116.5C844.79 116.09 845.32 115.52 845.66 114.81C845.99 114.1 846.16 113.29 846.16 112.39C846.16 111.49 845.99 110.68 845.66 109.98C845.33 109.27 844.79 108.71 844.05 108.31C843.31 107.91 842.33 107.7 841.11 107.7H836.32V127.76H833.6L833.61 127.75Z" fill="#222222"/>
<path d="M852.88 127.75V110.9H855.38V113.45H855.56C855.87 112.62 856.42 111.94 857.23 111.42C858.03 110.9 858.94 110.64 859.95 110.64C860.14 110.64 860.38 110.64 860.66 110.65C860.94 110.65 861.16 110.67 861.31 110.68V113.31C861.22 113.29 861.02 113.25 860.71 113.2C860.4 113.15 860.07 113.13 859.73 113.13C858.91 113.13 858.18 113.3 857.54 113.64C856.9 113.98 856.39 114.45 856.03 115.04C855.66 115.64 855.48 116.32 855.48 117.08V127.74H852.89L852.88 127.75Z" fill="#222222"/>
<path d="M871.23 128.1C869.71 128.1 868.38 127.74 867.23 127.01C866.08 126.29 865.19 125.27 864.55 123.97C863.91 122.66 863.59 121.14 863.59 119.41C863.59 117.68 863.91 116.12 864.55 114.81C865.19 113.5 866.08 112.49 867.23 111.76C868.37 111.04 869.71 110.67 871.23 110.67C872.75 110.67 874.09 111.03 875.23 111.76C876.37 112.49 877.27 113.5 877.91 114.81C878.55 116.12 878.87 117.65 878.87 119.41C878.87 121.17 878.55 122.67 877.91 123.97C877.27 125.27 876.38 126.29 875.23 127.01C874.08 127.73 872.75 128.1 871.23 128.1ZM871.23 125.77C872.39 125.77 873.34 125.47 874.08 124.88C874.82 124.29 875.38 123.51 875.74 122.54C876.1 121.57 876.28 120.53 876.28 119.4C876.28 118.27 876.1 117.22 875.74 116.25C875.38 115.28 874.83 114.49 874.08 113.89C873.33 113.29 872.38 112.99 871.23 112.99C870.08 112.99 869.12 113.29 868.38 113.89C867.63 114.49 867.08 115.28 866.72 116.25C866.36 117.22 866.18 118.28 866.18 119.4C866.18 120.52 866.36 121.57 866.72 122.54C867.08 123.51 867.63 124.28 868.38 124.88C869.13 125.47 870.08 125.77 871.23 125.77Z" fill="#222222"/>
<path d="M882.82 110.89H885.41V128.97C885.41 130.01 885.23 130.91 884.88 131.67C884.52 132.43 883.99 133.02 883.28 133.44C882.57 133.86 881.67 134.07 880.59 134.07H880.06V131.66H880.54C881.33 131.66 881.91 131.43 882.27 130.97C882.64 130.5 882.82 129.84 882.82 128.99V110.91V110.89ZM884.09 108.09C883.58 108.09 883.15 107.92 882.79 107.57C882.43 107.23 882.25 106.82 882.25 106.33C882.25 105.84 882.43 105.43 882.79 105.09C883.15 104.75 883.59 104.57 884.09 104.57C884.59 104.57 885.03 104.74 885.39 105.09C885.75 105.44 885.93 105.85 885.93 106.33C885.93 106.81 885.75 107.23 885.39 107.57C885.03 107.92 884.59 108.09 884.09 108.09Z" fill="#222222"/>
<path d="M897.21 128.1C895.59 128.1 894.19 127.74 893.01 127.02C891.84 126.3 890.93 125.29 890.3 123.99C889.67 122.69 889.35 121.18 889.35 119.45C889.35 117.72 889.67 116.2 890.3 114.88C890.93 113.56 891.82 112.53 892.96 111.78C894.1 111.03 895.43 110.67 896.95 110.67C897.83 110.67 898.69 110.82 899.55 111.11C900.41 111.4 901.19 111.88 901.89 112.53C902.59 113.18 903.15 114.05 903.57 115.13C903.99 116.21 904.2 117.53 904.2 119.1V120.2H891.21V117.96H901.57C901.57 117.01 901.38 116.16 901 115.41C900.62 114.67 900.09 114.08 899.4 113.64C898.71 113.21 897.89 112.99 896.96 112.99C895.93 112.99 895.04 113.25 894.29 113.76C893.54 114.27 892.96 114.93 892.56 115.74C892.16 116.55 891.96 117.42 891.96 118.35V119.84C891.96 121.12 892.18 122.19 892.62 123.07C893.06 123.95 893.68 124.62 894.47 125.08C895.26 125.54 896.18 125.77 897.23 125.77C897.91 125.77 898.53 125.67 899.08 125.48C899.63 125.28 900.11 124.99 900.51 124.6C900.91 124.21 901.22 123.72 901.44 123.13L903.94 123.84C903.68 124.69 903.23 125.43 902.61 126.07C901.99 126.71 901.22 127.21 900.31 127.56C899.4 127.91 898.37 128.1 897.23 128.1H897.21Z" fill="#222222"/>
<path d="M914.99 128.1C913.41 128.1 912.05 127.72 910.91 126.98C909.77 126.23 908.89 125.2 908.28 123.9C907.67 122.59 907.36 121.09 907.36 119.41C907.36 117.73 907.68 116.18 908.31 114.87C908.94 113.56 909.83 112.53 910.97 111.79C912.11 111.05 913.44 110.68 914.96 110.68C916.14 110.68 917.21 110.9 918.16 111.34C919.11 111.78 919.89 112.4 920.5 113.18C921.11 113.96 921.48 114.89 921.63 115.95H919.04C918.84 115.18 918.41 114.5 917.73 113.91C917.05 113.32 916.14 113.01 915 113.01C913.99 113.01 913.11 113.27 912.35 113.79C911.59 114.32 911 115.05 910.58 116C910.16 116.94 909.95 118.06 909.95 119.33C909.95 120.6 910.16 121.77 910.57 122.73C910.98 123.7 911.57 124.45 912.33 124.98C913.09 125.52 913.98 125.78 915 125.78C915.67 125.78 916.28 125.66 916.83 125.43C917.38 125.2 917.84 124.86 918.22 124.42C918.6 123.98 918.87 123.45 919.03 122.84H921.62C921.47 123.84 921.11 124.73 920.54 125.52C919.97 126.32 919.21 126.95 918.27 127.41C917.33 127.87 916.24 128.11 914.99 128.11V128.1Z" fill="#222222"/>
<path d="M932.72 110.89V113.09H923.99V110.89H932.72ZM926.54 106.86H929.13V122.92C929.13 123.65 929.24 124.2 929.45 124.56C929.67 124.92 929.94 125.16 930.28 125.28C930.62 125.4 930.98 125.46 931.36 125.46C931.64 125.46 931.88 125.44 932.06 125.41C932.24 125.38 932.39 125.35 932.5 125.33L933.03 127.66C932.85 127.72 932.61 127.79 932.29 127.86C931.98 127.93 931.58 127.96 931.09 127.96C930.36 127.96 929.64 127.81 928.95 127.49C928.25 127.17 927.67 126.69 927.21 126.05C926.75 125.41 926.53 124.59 926.53 123.61V106.85L926.54 106.86Z" fill="#222222"/>
<path d="M662.32 32.57H650.41V131.84H662.32V32.57Z" fill="#D92429"/>
</g>
<defs>
<clipPath id="clip0_1427_15739">
<rect width="934.79" height="165.3" fill="white"/>
</clipPath>
</defs>
</svg>
